<?xml version="1.0" encoding="utf-8"?>
<!-- Generator: Adobe Illustrator 21.0.0, SVG Export Plug-In . SVG Version: 6.00 Build 0)  -->
<svg version="1.1" id="Group_25_copy" xmlns="http://www.w3.org/2000/svg" xmlns:xlink="http://www.w3.org/1999/xlink" x="0px"
	 y="0px" viewBox="0 0 86 154" style="enable-background:new 0 0 86 154;" xml:space="preserve">
<style type="text/css">
	.st0{fill:none;}
	.st1{fill:#E7F5FD;}
	.st2{fill:#A7D9F5;}
	.st3{fill:url(#SVGID_1_);}
	.st4{fill:#89CBF1;}
	.st5{fill:#09B5F2;}
	.st6{fill:#2565CC;}
	.st7{fill:#2D90E6;}
	.st8{fill:#0DA4EE;}
</style>
<rect id="Rectangle_1_copy" y="0" class="st0" width="86" height="154"/>
<path id="Polygon_1_copy" class="st1" d="M72,113.5L55.8,141H23.3L7,113.5L23.3,86h32.5L72,113.5z"/>
<path class="st2" d="M60.8,94H31.3L16,121.5L31.3,146h29.5L77,120.5L60.8,94z M60.3,145H31.8L17,121.5L31.8,95h28.5L76,120.5
	L60.3,145z"/>
<path class="st2" d="M69.3,97H35.8L19,125.5L35.8,154h33.5L86,125.5L69.3,97z M68.8,153H36.3L20,125.5L36.3,98h32.5L85,125.5
	L68.8,153z"/>
<g>
	<linearGradient id="SVGID_1_" gradientUnits="userSpaceOnUse" x1="62.8802" y1="136.8778" x2="16.1358" y2="90.1333">
		<stop  offset="0" style="stop-color:#2760CA"/>
		<stop  offset="1" style="stop-color:#00C6FF"/>
	</linearGradient>
	<path class="st3" d="M56.8,84H22.3L5,113.5L22.3,143h34.5L74,113.5L56.8,84z M55.8,141H23.3L7,113.5L23.3,86h32.5L72,113.5
		L55.8,141z"/>
</g>
<g>
	<path class="st4" d="M6.8,136L3,142.5l3.8,6.5h7.5l3.8-6.5l-3.8-6.5H6.8z M13.8,148H7.3L4,142.5l3.3-5.5h6.5l3.3,5.5L13.8,148z"/>
	<path class="st4" d="M72.3,78h-7.5L61,84.5l3.8,6.5h7.5l3.8-6.5L72.3,78z M71.8,90h-6.5L62,84.5l3.3-5.5h6.5l3.3,5.5L71.8,90z"/>
</g>
<path id="Polygon_1_copy_4" class="st5" d="M10.8,130H9.7L0,113.5L6.2,103h1L1,113.5L10.8,130z"/>
<path id="Polygon_1_copy_5" class="st6" d="M69,97h1.1l9.9,16.5L73.7,124h-1.1l6.4-10.5L69,97z"/>
<path id="Polygon_2_copy-2" class="st4" d="M64.8,14L61,7.5L64.8,1h7.5L76,7.5L72.3,14H64.8L64.8,14z M71.8,2h-6.5L62,7.5l3.3,5.5
	h6.5L75,7.5L71.8,2z M69.3,20L86,48.5L69.3,77H35.8l-8.1-13.8L16,44.5L31.3,17h29.5l1.8,3L69.3,20L69.3,20z M36.3,76h32.5L85,48.5
	L68.8,21h-5.5L77,43.5L60.8,69H32.1L36.3,76z M27.9,61.8l3.9,6.2h28.5L76,43.5L62.1,21H36.3L20,48.5L27.9,61.8z M60.2,18H31.7
	L17,44.5l2.2,3.6L35.7,20h25.7L60.2,18z M14.2,72H6.7L3,65.5L6.8,59h7.5l3.8,6.5L14.2,72z M13.7,60H7.2L4,65.5L7.3,71h6.5l3.3-5.5
	L13.7,60z"/>
<path id="Polygon_1_copy_5-2" class="st7" d="M73.7,47h-1.1L79,36.5L69,20h1.1L80,36.5L73.7,47z M56.3,65H22.8L6,36.5L22.8,8h33.5
	L73,36.5L56.3,65z M55.8,9H23.3L7,36.5L23.3,64h32.5L72,36.5L55.8,9z M48,22.5c0.6,0.2,1.1,0.6,1.6,1.1c0.3,0.3,0.4,0.8,0.4,1.2
	c0,0.6-0.2,1.2-0.7,1.5c-0.6,0.4-1.3,0.6-2,0.5c-0.4,0-0.7,0-1-0.1c-0.3,0-0.6-0.2-0.9-0.3v-1.1c0.3,0.2,0.6,0.4,0.9,0.5
	c0.4,0.1,0.7,0.2,1.1,0.2c1.1,0,1.6-0.4,1.6-1.1c0-0.2-0.1-0.4-0.2-0.6c-0.1-0.2-0.3-0.3-0.5-0.5c-0.4-0.2-0.7-0.4-1.1-0.6
	c-0.6-0.2-1.1-0.6-1.5-1.1c-0.2-0.3-0.4-0.7-0.4-1.1c0-0.6,0.3-1.2,0.8-1.5c0.6-0.4,1.2-0.6,1.9-0.6c0.6,0,1.1,0.1,1.7,0.3v1.1
	c-0.5-0.3-1.1-0.5-1.7-0.5c-0.4,0-0.8,0.1-1.1,0.3c-0.3,0.2-0.4,0.5-0.4,0.8c0,0.3,0.1,0.6,0.3,0.8C47.1,22.1,47.5,22.3,48,22.5z
	 M47.8,33.4v1C47.3,34.1,46.7,34,46,34c-0.8,0-1.5,0.3-2.1,0.8c-0.6,0.6-0.8,1.4-0.8,2.3c0,0.8,0.2,1.6,0.7,2.2
	c0.5,0.5,1.2,0.8,1.9,0.8c0.7,0,1.4-0.2,2-0.5v0.9c-0.7,0.3-1.4,0.5-2.1,0.4c-1,0-1.9-0.3-2.6-1c-0.7-0.8-1-1.7-1-2.7
	c0-1.1,0.3-2.2,1.1-3C44,33.4,45,33,46,33.1C46.6,33.1,47.3,33.2,47.8,33.4L47.8,33.4z M38.8,20.8c-0.1-0.2-0.2-0.3-0.3-0.5h0
	c0,0.4,0,0.7,0,1.1v5.3h-1v-7.6h1.2l3.7,5.8c0.1,0.2,0.2,0.3,0.3,0.5h0c0-0.4-0.1-0.7,0-1.1v-5.2h1v7.6h-1.2L38.8,20.8z M40.1,34.2
	c0.8,0.7,1.2,1.7,1.1,2.7c0,1.1-0.4,2.1-1.1,2.8c-0.8,0.7-1.9,1.1-2.9,1.1h-2.1v-7.6h2.2C38.3,33.2,39.3,33.5,40.1,34.2L40.1,34.2z
	 M37.2,34.1H36v5.9h1.1c0.8,0,1.6-0.2,2.2-0.8c0.6-0.6,0.9-1.4,0.8-2.2c0.1-0.8-0.2-1.6-0.8-2.1C38.7,34.3,38,34,37.2,34.1
	L37.2,34.1z M32.1,26.7H30v-7.6h2.2c1,0,2.1,0.3,2.9,1c0.8,0.7,1.2,1.7,1.1,2.7c0,1.1-0.4,2.1-1.1,2.8
	C34.2,26.4,33.1,26.8,32.1,26.7L32.1,26.7z M34.3,20.7c-0.6-0.5-1.4-0.8-2.2-0.7H31v5.9h1.1c0.8,0,1.6-0.2,2.2-0.8
	c0.6-0.6,0.9-1.4,0.8-2.2C35.2,22.1,34.9,21.3,34.3,20.7L34.3,20.7z M33.8,34h-0.7V40h0.7v0.8h-2.4V40h0.7V34h-0.7v-0.8h2.4L33.8,34
	L33.8,34z M34.1,54.1c1.1,0,1.6-0.4,1.6-1.1c0-0.2-0.1-0.4-0.2-0.6c-0.1-0.2-0.3-0.3-0.5-0.5c-0.2-0.1-0.6-0.3-1.1-0.6
	c-0.6-0.2-1.1-0.6-1.5-1.1c-0.2-0.3-0.4-0.7-0.4-1.1c0-0.6,0.3-1.2,0.8-1.5c0.6-0.4,1.2-0.6,1.9-0.6c0.6,0,1.1,0.1,1.7,0.3v1.1
	c-0.5-0.3-1.1-0.5-1.7-0.5c-0.4,0-0.8,0.1-1.1,0.3c-0.3,0.2-0.4,0.5-0.4,0.8c0,0.3,0.1,0.6,0.3,0.8c0.4,0.3,0.8,0.6,1.3,0.8
	c0.6,0.2,1.1,0.6,1.6,1.1c0.3,0.3,0.4,0.8,0.4,1.2c0,0.6-0.2,1.2-0.7,1.5c-0.6,0.4-1.3,0.6-2,0.5c-0.4,0-0.7,0-1-0.1
	c-0.3,0-0.6-0.2-0.9-0.3v-1.1c0.3,0.2,0.6,0.4,0.9,0.5C33.3,54.1,33.7,54.1,34.1,54.1L34.1,54.1z M39.8,54.1c1.1,0,1.6-0.4,1.6-1.1
	c0-0.2-0.1-0.4-0.2-0.6c-0.1-0.2-0.3-0.3-0.5-0.5c-0.4-0.2-0.7-0.4-1.1-0.6c-0.6-0.2-1.1-0.6-1.5-1.1c-0.2-0.3-0.4-0.7-0.4-1.1
	c0-0.6,0.3-1.2,0.8-1.5c0.6-0.4,1.2-0.6,1.9-0.6c0.6,0,1.1,0.1,1.7,0.3v1.1C41.6,48.1,41,48,40.4,48c-0.4,0-0.8,0.1-1.1,0.3
	c-0.3,0.2-0.4,0.5-0.4,0.8c0,0.3,0.1,0.6,0.3,0.8c0.4,0.3,0.8,0.6,1.3,0.8c0.6,0.2,1.1,0.6,1.6,1.1c0.3,0.3,0.4,0.8,0.4,1.2
	c0,0.6-0.2,1.2-0.7,1.5c-0.6,0.4-1.3,0.6-2,0.5c-0.4,0-0.7,0-1-0.1c-0.3,0-0.6-0.2-0.9-0.3v-1.1c0.3,0.2,0.6,0.4,0.9,0.5
	C39.1,54.1,39.5,54.1,39.8,54.1L39.8,54.1z M44.9,54h3v0.9h-4v-7.6h1L44.9,54L44.9,54z M10.8,53H9.7L0,36.5L6.2,26h1L1,36.5L10.8,53
	z"/>
<path class="st8" d="M34.7,127.6c-0.5-0.2-0.9-0.5-1.3-0.8c-0.2-0.2-0.3-0.5-0.3-0.8c0-0.3,0.2-0.6,0.4-0.8c0.3-0.2,0.7-0.3,1.1-0.3
	c0.6,0,1.2,0.1,1.7,0.5v-1.1c-0.5-0.2-1.1-0.3-1.7-0.3c-0.7,0-1.3,0.2-1.9,0.6c-0.5,0.3-0.8,0.9-0.8,1.5c0,0.4,0.1,0.8,0.4,1.1
	c0.4,0.5,0.9,0.8,1.5,1.1c0.5,0.3,0.9,0.5,1.1,0.6c0.2,0.1,0.3,0.3,0.5,0.5c0.1,0.2,0.2,0.4,0.2,0.6c0,0.8-0.5,1.1-1.6,1.1
	c-0.4,0-0.7-0.1-1.1-0.2c-0.3-0.1-0.7-0.3-0.9-0.5v1.1l0,0c0.3,0.2,0.6,0.3,0.9,0.3c0.3,0.1,0.7,0.1,1,0.1c0.7,0,1.4-0.1,2-0.5
	c0.5-0.4,0.8-0.9,0.7-1.5c0-0.4-0.2-0.9-0.4-1.2C35.8,128.3,35.3,127.9,34.7,127.6z"/>
<path class="st8" d="M38.6,98.4c0-0.4,0-0.7,0-1.1h0c0.1,0.2,0.2,0.3,0.3,0.5l3.8,5.9h1.2v-7.6l0,0h-1v5.2c0,0.4,0,0.7,0,1.1h0
	c-0.1-0.2-0.2-0.4-0.3-0.5l-3.7-5.8h-1.2v7.6h1V98.4z"/>
<polygon class="st8" points="33.8,117 33.1,117 33.1,111 33.8,111 33.8,110.2 33.8,110.2 31.4,110.2 31.4,111 32.1,111 32.1,117 
	31.4,117 31.4,117.8 33.8,117.8 "/>
<path class="st8" d="M32.1,103.7c1.1,0,2.1-0.3,2.9-1.1c0.8-0.7,1.2-1.8,1.1-2.8c0-1-0.4-2-1.1-2.7c-0.8-0.7-1.8-1-2.9-1H30v7.6
	L32.1,103.7L32.1,103.7z M32.1,102.9H31V97h1.1h0c0.8,0,1.6,0.2,2.2,0.7c0.6,0.6,0.9,1.3,0.8,2.1c0,0.8-0.2,1.6-0.8,2.2
	C33.7,102.6,32.9,102.9,32.1,102.9z"/>
<path class="st8" d="M40.5,127.6c-0.5-0.2-0.9-0.5-1.3-0.8c-0.2-0.2-0.3-0.5-0.3-0.8c0-0.3,0.2-0.6,0.4-0.8c0.3-0.2,0.7-0.3,1.1-0.3
	c0.6,0,1.2,0.1,1.7,0.5v-1.1c-0.5-0.2-1.1-0.3-1.7-0.3c-0.7,0-1.3,0.2-1.9,0.6c-0.5,0.3-0.8,0.9-0.8,1.5c0,0.4,0.1,0.8,0.4,1.1
	c0.4,0.5,0.9,0.8,1.5,1.1c0.4,0.2,0.8,0.4,1.1,0.6c0.2,0.1,0.3,0.3,0.5,0.5c0.1,0.2,0.2,0.4,0.2,0.6c0,0.8-0.5,1.1-1.6,1.1
	c-0.4,0-0.7-0.1-1.1-0.2c-0.3-0.1-0.7-0.3-0.9-0.5v1.1l0,0c0.3,0.2,0.6,0.3,0.9,0.3c0.3,0.1,0.7,0.1,1,0.1c0.7,0,1.4-0.1,2-0.5
	c0.5-0.4,0.8-0.9,0.7-1.5c0-0.4-0.2-0.9-0.4-1.2C41.6,128.3,41,127.9,40.5,127.6z"/>
<path class="st8" d="M48,99.5c-0.5-0.2-0.9-0.5-1.3-0.8c-0.2-0.2-0.3-0.5-0.3-0.8c0-0.3,0.2-0.6,0.4-0.8c0.3-0.2,0.7-0.3,1.1-0.3
	c0.6,0,1.2,0.1,1.7,0.5v-1.1C49.2,96.1,48.6,96,48,96c-0.7,0-1.3,0.2-1.9,0.6c-0.5,0.3-0.8,0.9-0.8,1.5c0,0.4,0.1,0.8,0.4,1.1
	c0.4,0.5,0.9,0.8,1.5,1.1c0.4,0.2,0.8,0.4,1.1,0.6c0.2,0.1,0.3,0.3,0.5,0.5c0.1,0.2,0.2,0.4,0.2,0.6c0,0.8-0.5,1.1-1.6,1.1
	c-0.4,0-0.7-0.1-1.1-0.2c-0.3-0.1-0.7-0.3-0.9-0.5v1.1l0,0c0.3,0.2,0.6,0.3,0.9,0.3c0.3,0.1,0.7,0.1,1,0.1c0.7,0,1.4-0.1,2-0.5
	c0.5-0.4,0.8-0.9,0.7-1.5c0-0.4-0.2-0.9-0.4-1.2C49.1,100.1,48.6,99.8,48,99.5z"/>
<path class="st8" d="M47.8,117.5v-0.9v0c-0.6,0.3-1.3,0.5-2,0.5c-0.7,0-1.4-0.3-1.9-0.8c-0.5-0.6-0.8-1.4-0.7-2.2
	c0-0.8,0.2-1.7,0.8-2.3c0.5-0.6,1.3-0.9,2.1-0.8c0.6,0,1.2,0.1,1.8,0.5v-1c-0.6-0.2-1.2-0.3-1.8-0.3c-1,0-2,0.4-2.8,1.1
	c-0.7,0.8-1.1,1.9-1.1,3c0,1,0.3,2,1,2.7c0.7,0.7,1.6,1.1,2.6,1C46.5,118,47.2,117.8,47.8,117.5z"/>
<polygon class="st8" points="44.9,124.3 43.9,124.3 43.9,131.9 47.9,131.9 47.9,131 47.9,131 44.9,131 "/>
<path class="st8" d="M41.2,113.9c0-1-0.4-2-1.1-2.7c-0.8-0.7-1.8-1-2.9-1h-2.2v7.6h2.1c1.1,0,2.1-0.3,2.9-1.1
	C40.8,116,41.2,115,41.2,113.9z M37.1,116.9H36v-5.9h1.1h0c0.8,0,1.6,0.2,2.2,0.7c0.6,0.6,0.9,1.3,0.8,2.1c0,0.8-0.2,1.6-0.8,2.2
	C38.8,116.7,38,117,37.1,116.9z"/>
</svg>
