<?xml version="1.0" encoding="utf-8"?>
<!-- Generator: Adobe Illustrator 21.0.0, SVG Export Plug-In . SVG Version: 6.00 Build 0)  -->
<svg version="1.1" id="_030_copy" xmlns="http://www.w3.org/2000/svg" xmlns:xlink="http://www.w3.org/1999/xlink" x="0px" y="0px"
	 viewBox="0 0 86 154" style="enable-background:new 0 0 86 154;" xml:space="preserve">
<style type="text/css">
	.st0{fill:none;}
	.st1{fill:#BFCBEE;}
	.st2{fill:#BED6F2;}
	.st3{fill:#29BFF4;}
	.st4{fill:#16A7EF;}
	.st5{fill:#E7F5FD;}
	.st6{fill:url(#SVGID_1_);}
	.st7{fill:#89CBF1;}
	.st8{fill:#E6F4FC;}
	.st9{fill:#2D90E6;}
	.st10{fill:#FFFFFF;}
</style>
<rect id="Rectangle_1_copy_9" y="0" class="st0" width="86" height="154"/>
<path class="st1" d="M45,135c-19.9,0-36,4.3-36,9.5s16.1,9.5,36,9.5s36-4.3,36-9.5S64.9,135,45,135z M45,153c-19.3,0-35-3.8-35-8.5
	c0-4.7,15.7-8.5,35-8.5s35,3.8,35,8.5C80,149.2,64.3,153,45,153z"/>
<path class="st2" d="M45,136c-13.8,0-25,2.9-25,6.5c0,3.6,11.2,6.5,25,6.5s25-2.9,25-6.5C70,138.9,58.8,136,45,136z M45,148
	c-13.3,0-24-2.5-24-5.5c0-3,10.7-5.5,24-5.5s24,2.5,24,5.5C69,145.5,58.3,148,45,148z"/>
<path class="st3" d="M38,121c-1.7,0-3,1.3-3,3s1.3,3,3,3s3-1.3,3-3S39.7,121,38,121z M38,126c-1.1,0-2-0.9-2-2c0-1.1,0.9-2,2-2
	s2,0.9,2,2C40,125.1,39.1,126,38,126z"/>
<path id="Rectangle_2_copy" class="st4" d="M64,132H52v5c0,1.1-0.9,2-2,2H26c-1.1,0-2-0.9-2-2V92c0-1.1,0.9-2,2-2h24
	c1.1,0,2,0.9,2,2h6v1h-6v2h6v1h-6v2h6v1h-6v9h13V85c0-0.6-0.4-1-1-1H40c-0.6,0-1,0.4-1,1v5h-1v-5c0-1.1,0.9-2,2-2h24
	c1.1,0,2,0.9,2,2v45C66,131.1,65.1,132,64,132z M51,92c0-0.6-0.4-1-1-1H26c-0.6,0-1,0.4-1,1v23h26V92z M51,116H25v21
	c0,0.6,0.4,1,1,1h24c0.6,0,1-0.4,1-1V116z M65,109H52v22h12c0.6,0,1-0.4,1-1V109z M44,100H29v-1h15V100z M44,103H29v-1h15V103z
	 M44,106H29v-1h15V106z M48,100h-2v-1h2V100z M48,103h-2v-1h2V103z M48,106h-2v-1h2V106z"/>
<path id="Shape_811_copy_2" class="st5" d="M45,121.3v13.5c0,0,2,7.5,12,11.2c10.2-3.8,12-11.2,12-11.2v-13.5
	C61.3,118.2,52.7,118.2,45,121.3z"/>
<linearGradient id="SVGID_1_" gradientUnits="userSpaceOnUse" x1="46.2814" y1="118.1356" x2="67.734" y2="139.5881">
	<stop  offset="1.210938e-03" style="stop-color:#00C6FF"/>
	<stop  offset="1" style="stop-color:#2760CA"/>
</linearGradient>
<path class="st6" d="M44,120.4v14.5c0,0,2.2,8.1,13,12.1c11-4.1,13-12.1,13-12.1v-14.5C61.6,117.2,52.4,117.2,44,120.4z M68,134.6
	c0,0-1.7,6.9-11,10.4c-9.2-3.5-11-10.4-11-10.4v-12.5c7.1-2.8,14.9-2.8,22,0V134.6z"/>
<path id="Ellipse_775_copy" class="st4" d="M61.9,134L61.9,134l-9,0l0,0c-1.1-0.1-2-1-1.9-2.2c0.1-1,0.9-1.9,2-1.9
	c-0.2-0.8,0.4-1.6,1.2-1.8c0.1,0,0.2,0,0.3,0c0.1,0,0.2,0,0.4,0c0.3-1.3,1.5-2.2,2.8-2.1c1.6,0,3,1.2,3.2,2.8c0,0,0,0,0,0
	c0.1,0,0.2,0,0.3,0c1.4,0,2.7,1.1,2.9,2.5c0.2,1.3-0.6,2.4-1.9,2.7C62,134,62,134,61.9,134z M63,131c-0.4-0.7-1.2-1-2-1
	c-0.1,0-0.9,0-1,0c-0.1-1.2-1-3-2.4-3c-1.2,0-1.4,1.1-1.6,2c-0.1,0-0.9,0-1,0c-0.5-0.1-0.9,0.2-1,0.7c0,0.1,0,0.2,0,0.3
	c0,0.1,0,0.9,0,1c-0.9-0.5-2-0.4-2,0.4c0,0.9,0.8,1.6,1.7,1.6l0,0h7.6v0c1,0,1.8-0.8,1.7-1.8C63,131.1,63,131,63,131z"/>
<path class="st7" d="M45,58c-19.9,0-36,4.3-36,9.5S25.1,77,45,77s36-4.3,36-9.5S64.9,58,45,58z M45,76c-19.3,0-35-3.8-35-8.5
	c0-4.7,15.7-8.5,35-8.5s35,3.8,35,8.5C80,72.2,64.3,76,45,76z"/>
<path class="st8" d="M45,59c-13.8,0-25,2.9-25,6.5c0,3.6,11.2,6.5,25,6.5s25-2.9,25-6.5C70,61.9,58.8,59,45,59z M45,71
	c-13.3,0-24-2.5-24-5.5c0-3,10.7-5.5,24-5.5s24,2.5,24,5.5C69,68.5,58.3,71,45,71z"/>
<path class="st9" d="M38,44c-1.7,0-3,1.3-3,3s1.3,3,3,3s3-1.3,3-3S39.7,44,38,44z M38,49c-1.1,0-2-0.9-2-2s0.9-2,2-2s2,0.9,2,2
	S39.1,49,38,49z"/>
<path id="Rectangle_2_copy-2" class="st4" d="M64,55H52v5c0,1.1-0.9,2-2,2H26c-1.1,0-2-0.9-2-2V15c0-1.1,0.9-2,2-2h24
	c1.1,0,2,0.9,2,2h6v1h-6v2h6v1h-6v2h6v1h-6v9h13V8c0-0.6-0.4-1-1-1H40c-0.6,0-1,0.4-1,1v5h-1V8c0-1.1,0.9-2,2-2h24c1.1,0,2,0.9,2,2
	v45C66,54.1,65.1,55,64,55z M51,15c0-0.6-0.4-1-1-1H26c-0.6,0-1,0.4-1,1v23h26V15z M51,39H25v21c0,0.6,0.4,1,1,1h24c0.6,0,1-0.4,1-1
	V39z M65,32H52v22h12c0.6,0,1-0.4,1-1V32z M44,23H29v-1h15V23z M44,26H29v-1h15V26z M44,29H29v-1h15V29z M48,23h-2v-1h2V23z M48,26
	h-2v-1h2V26z M48,29h-2v-1h2V29z"/>
<path id="Shape_811_copy_2-2" class="st10" d="M45,44.3v13.5c0,0,2,7.5,12,11.2c10.2-3.8,12-11.2,12-11.2V44.3
	C61.3,41.2,52.7,41.2,45,44.3z"/>
<path class="st9" d="M44,43.4v14.5c0,0,2.2,8.1,13,12.1c11-4.1,13-12.1,13-12.1V43.4C61.6,40.2,52.4,40.2,44,43.4z M69,57.8
	c0,0-1.8,7.4-12,11.2c-10-3.7-12-11.2-12-11.2V44.3v0c7.7-3,16.3-3,24,0V57.8z"/>
<path id="Ellipse_775_copy-2" class="st4" d="M61.9,57L61.9,57l-9,0l0,0c-1.1-0.1-2-1-1.9-2.2c0.1-1,0.9-1.9,2-1.9
	c-0.2-0.8,0.4-1.6,1.2-1.8c0.1,0,0.2,0,0.3,0c0.1,0,0.2,0,0.4,0c0.3-1.3,1.5-2.2,2.8-2.1c1.6,0,3,1.2,3.2,2.8c0,0,0,0,0,0
	c0.1,0,0.2,0,0.3,0c1.4,0,2.7,1.1,2.9,2.5c0.2,1.3-0.6,2.4-1.9,2.7C62,57,62,57,61.9,57z M63,54c-0.4-0.7-1.2-1-2-1
	c-0.1,0-0.9,0-1,0c-0.1-1.2-1-3-2.4-3c-1.2,0-1.4,1.1-1.6,2c-0.1,0-0.9,0-1,0c-0.5-0.1-0.9,0.2-1,0.7c0,0.1,0,0.2,0,0.3
	c0,0.1,0,0.9,0,1c-0.9-0.5-2-0.4-2,0.4c0,0.9,0.8,1.6,1.7,1.6l0,0h7.6v0c1,0,1.8-0.8,1.7-1.8C63,54.1,63,54,63,54z"/>
</svg>
