<?xml version="1.0" encoding="utf-8"?>
<!-- Generator: Adobe Illustrator 21.0.0, SVG Export Plug-In . SVG Version: 6.00 Build 0)  -->
<svg version="1.1" id="_020" xmlns="http://www.w3.org/2000/svg" xmlns:xlink="http://www.w3.org/1999/xlink" x="0px" y="0px"
	 viewBox="0 0 86 154" style="enable-background:new 0 0 86 154;" xml:space="preserve">
<style type="text/css">
	.st0{fill:none;}
	.st1{fill:#BFCBEE;}
	.st2{fill:#B7D2F1;}
	.st3{fill:#2D90E6;}
	.st4{fill:#29BFF4;}
	.st5{fill:#E7F5FD;}
	.st6{fill:url(#Development_copy_1_);}
	.st7{fill:#D5ECFB;}
	.st8{fill:#2EA1E9;}
	.st9{fill:#89CBF1;}
	.st10{fill:#E6F4FC;}
	.st11{fill:#DAEEFB;}
	.st12{fill:#9BD2F4;}
	.st13{fill:#59B4EE;}
	.st14{fill:#0DA4EE;}
</style>
<rect id="Rectangle_1_copy_2" y="0" class="st0" width="86" height="154"/>
<path class="st1" d="M43,135c-19.9,0-36,4.3-36,9.5s16.1,9.5,36,9.5c19.9,0,36-4.3,36-9.5S62.9,135,43,135z M43,153
	c-19.3,0-35-3.8-35-8.5c0-4.7,15.7-8.5,35-8.5c19.3,0,35,3.8,35,8.5C78,149.2,62.3,153,43,153z"/>
<path class="st2" d="M43,136c-13.8,0-25,2.9-25,6.5c0,3.6,11.2,6.5,25,6.5s25-2.9,25-6.5C68,138.9,56.8,136,43,136z M43,148
	c-13.3,0-24-2.5-24-5.5c0-3,10.7-5.5,24-5.5s24,2.5,24,5.5C67,145.5,56.3,148,43,148z"/>
<path class="st3" d="M43.5,136c-7.5,0-9.5,1.1-9.5,2.5c0,1.4,4.3,2.5,9.5,2.5s9.5-1.1,9.5-2.5C53,137.1,51,136,43.5,136z
	 M43.5,140.1c-3.3,0-8.5-0.8-8.5-1.6s5.2-1.5,8.5-1.5c3.3,0,8.5,0.7,8.5,1.5S46.8,140.1,43.5,140.1z"/>
<rect x="72" y="133" class="st4" width="1" height="11"/>
<rect id="Rectangle_1_copy_5" x="15" y="130" class="st4" width="1" height="7"/>
<rect id="Rectangle_1_copy_3" x="57" y="132" class="st4" width="1" height="10"/>
<rect id="Rectangle_1_copy_4" x="35" y="120" class="st4" width="1" height="15"/>
<path id="Development_copy_3" class="st5" d="M54.8,122.2c-1.2-0.9-3.9-1.6-5.8-2.2c-1.3,2.3-2.1,3.6-3,5h-6c-0.9-1.4-1.7-2.7-3-5
	c-1.9,0.5-4.6,1.3-5.8,2.2c-5.2,4.9-5-3.3,0.9-11.8v-10c1.1-5.8,3.7-9.1,9.1-15.5c1.3-1.6,2.1-1.6,3.6,0c5.4,6.3,8,9.6,9.1,15.5v10
	C59.7,119,59.7,127.1,54.8,122.2z M41.1,130.5c1.1-1.1,2.9-1.2,4-0.1c0,0,0,0,0,0c0.8,0.8,0.9,2.1,0.3,3.1l-1.7,3.4
	c0,0-0.1,0.1-0.1,0.1c-0.2,0.2-0.5,0.2-0.7,0c0,0,0,0,0,0c0,0-0.1-0.1-0.1-0.1l-1.9-3.3C40.3,132.6,40.3,131.3,41.1,130.5z"/>
<linearGradient id="Development_copy_1_" gradientUnits="userSpaceOnUse" x1="58.2934" y1="125.9303" x2="27.6649" y2="95.3018">
	<stop  offset="0" style="stop-color:#00C6FF"/>
	<stop  offset="0.9988" style="stop-color:#2760CA"/>
</linearGradient>
<path id="Development_copy" class="st6" d="M56.2,125.1c-1.9-1.4-4-2.4-6.2-3.1c-1.6,2.7-2,3.4-3,5h-8c-1-1.6-1.4-2.3-3-5
	c-2.2,0.7-4.4,1.7-6.3,3.1c-4.5,3.4-5.7-7,0.3-14.1v-11c1.3-6.8,6-12.8,11-18c1.6-1.8,2.3-1.7,4,0c4.9,5.2,9.7,11.2,11,18v11
	C61.9,118.1,60.8,128.4,56.2,125.1z M54,111c0-3.1-0.1-6.8-0.1-10.7c-1.1-5.8-3.7-9.2-9.1-15.5c-1.6-1.6-2.4-1.6-3.6,0
	c-5.4,6.3-8,9.6-9.1,15.5c0,3.1-0.1,7.5-0.1,10.7c-4.6,7.5-5.7,14-1,11c1.2-0.9,4.1-1.5,6-2c1.3,2.3,2.1,3.6,3,5h6
	c0.9-1.4,1.7-2.7,3-5c1.9,0.5,4.8,1.1,6,2C59.4,125.3,58.8,119,54,111z M40.7,129.7c1.3-1.3,3.4-1.4,4.7-0.1c1.1,1,1.3,2.6,0.7,3.9
	l-2.2,4.5c-0.2,0.3-0.6,0.5-0.9,0.3c-0.1,0-0.1-0.1-0.2-0.1c0,0-0.1-0.1-0.1-0.2l-2.4-4.3C39.5,132.4,39.7,130.8,40.7,129.7z
	 M40.9,133.6l1.9,3.3c0,0,0.1,0.1,0.1,0.1c0.2,0.2,0.5,0.2,0.7,0c0,0,0,0,0,0c0,0,0.1-0.1,0.1-0.1l1.7-3.4c0.6-1,0.5-2.3-0.3-3.1
	c-1.1-1.1-2.9-1-4,0.1c0,0,0,0,0,0C40.3,131.3,40.3,132.6,40.9,133.6z"/>
<circle id="Ellipse_776_copy" class="st7" cx="43.5" cy="99.5" r="4.5"/>
<path class="st8" d="M43.5,94c-3,0-5.5,2.5-5.5,5.5c0,3,2.5,5.5,5.5,5.5c3,0,5.5-2.5,5.5-5.5C49,96.5,46.5,94,43.5,94z M43.5,104
	c-2.5,0-4.5-2-4.5-4.5s2-4.5,4.5-4.5s4.5,2,4.5,4.5S46,104,43.5,104z"/>
<path class="st9" d="M43,58c-19.9,0-36,4.3-36,9.5S23.1,77,43,77c19.9,0,36-4.3,36-9.5S62.9,58,43,58z M43,76c-19.3,0-35-3.8-35-8.5
	C8,62.8,23.7,59,43,59c19.3,0,35,3.8,35,8.5C78,72.2,62.3,76,43,76z"/>
<path class="st10" d="M43,59c-13.8,0-25,2.9-25,6.5c0,3.6,11.2,6.5,25,6.5s25-2.9,25-6.5C68,61.9,56.8,59,43,59z M43,71
	c-13.3,0-24-2.5-24-5.5c0-3,10.7-5.5,24-5.5s24,2.5,24,5.5C67,68.5,56.3,71,43,71z"/>
<path class="st3" d="M43.5,59C36,59,34,60.1,34,61.5s4.3,2.5,9.5,2.5s9.5-1.1,9.5-2.5S51,59,43.5,59z M43.5,63.1
	c-3.3,0-8.5-0.8-8.5-1.6c0-0.9,5.2-1.5,8.5-1.5c3.3,0,8.5,0.7,8.5,1.5C52,62.3,46.8,63.1,43.5,63.1z"/>
<rect id="Rectangle_1_copy_6" x="72" y="56" class="st11" width="1" height="11"/>
<rect id="Rectangle_1_copy_6-2" x="15" y="53" class="st12" width="1" height="7"/>
<rect id="Rectangle_1_copy_6-3" x="57" y="55" class="st13" width="1" height="10"/>
<rect id="Rectangle_1_copy_6-4" x="35" y="43" class="st13" width="1" height="15"/>
<g>
	<path class="st14" d="M41.5,52.1c-1.6,0.9-2.2,2.9-1.3,4.5l2.4,4.3c0,0.1,0.1,0.1,0.1,0.2c0,0,0.1,0.1,0.2,0.1
		c0.3,0.2,0.7,0,0.9-0.3l2.2-4.5c0.5-1,0.5-2.2-0.1-3.1C45.1,51.8,43.1,51.2,41.5,52.1z M45.4,56.5l-1.7,3.4c0,0-0.1,0.1-0.1,0.1
		c-0.2,0.2-0.5,0.2-0.7,0c0,0,0,0,0,0c0,0-0.1-0.1-0.1-0.1l-1.9-3.3c-0.6-1-0.6-2.3,0.2-3.1c1.1-1.1,2.9-1.2,4-0.1c0,0,0,0,0,0
		C45.9,54.2,46,55.5,45.4,56.5z"/>
	<path class="st14" d="M56,34V23c-1.3-6.8-6.1-12.8-11-18c-1.7-1.7-2.4-1.8-4,0c-5,5.2-9.7,11.2-11,18v11c-6,7.1-4.8,17.4-0.3,14.1
		c1.9-1.4,4-2.4,6.3-3.1c1.6,2.7,2,3.4,3,5h8c1-1.6,1.4-2.3,3-5c2.2,0.7,4.3,1.7,6.2,3.1C60.8,51.4,61.9,41.1,56,34z M56,47
		c-2-1.2-4.2-2.1-6.4-2.7c-1.5,2.5-1.8,3.2-2.8,4.7h0h-7.5c-1-1.5-1.3-2.1-2.8-4.7C34.2,44.9,32,45.8,30,47c-4.3,3.2-4.6-6.4,1-13
		V23c1.2-6.4,4-10,10-17c1.4-1.8,2.3-1.7,4,0c5.9,6.9,8.8,10.6,10,17v11C60.6,40.6,60.2,50.2,56,47z"/>
</g>
<path class="st8" d="M43.5,17c-3,0-5.5,2.5-5.5,5.5c0,3,2.5,5.5,5.5,5.5c3,0,5.5-2.5,5.5-5.5C49,19.5,46.5,17,43.5,17z M43.5,27
	C41,27,39,25,39,22.5s2-4.5,4.5-4.5s4.5,2,4.5,4.5S46,27,43.5,27z"/>
</svg>
