<?xml version="1.0" encoding="utf-8"?>
<!-- Generator: Adobe Illustrator 21.0.0, SVG Export Plug-In . SVG Version: 6.00 Build 0)  -->
<svg version="1.1" id="_030_copy" xmlns="http://www.w3.org/2000/svg" xmlns:xlink="http://www.w3.org/1999/xlink" x="0px" y="0px"
	 viewBox="0 0 86 154" style="enable-background:new 0 0 86 154;" xml:space="preserve">
<style type="text/css">
	.st0{fill:none;}
	.st1{fill:#BFCBEE;}
	.st2{fill:#35A4EA;}
	.st3{fill:#29BFF4;}
	.st4{fill:#2D90E6;}
	.st5{fill:#E7F5FD;}
	.st6{fill:#00C6FF;}
	.st7{fill:url(#Rounded_Rectangle_771_copy_1_);}
	.st8{fill:#E6F4FC;}
	.st9{fill:#59B4EE;}
	.st10{fill:#9BD2F4;}
	.st11{fill:#0DA4EE;}
</style>
<rect id="Rectangle_1_copy_8" y="0" class="st0" width="86" height="154"/>
<path id="椭圆_13_copy" class="st1" d="M45,154c-14.4,0-26-3.2-26-7.1s11.6-7,26-6.9s26,3.2,26,7.1S59.4,154,45,154z M45,141
	c-13.8,0-25,2.6-25,5.9s11.2,6,25,6.1s25-2.6,25-5.9S58.8,141,45,141L45,141z"/>
<path id="椭圆_13_copy_3" class="st2" d="M45,148c-5.5,0-10-1.4-10-3s4.5-3,10-3s10,1.4,10,3S50.5,148,45,148z M45,143
	c-5,0-9,0.9-9,2s4,2,9,2s9-0.9,9-2S50,143,45,143L45,143z"/>
<path class="st3" d="M9.6,113.2l0.9-0.5l10,18l-0.9,0.5L9.6,113.2z"/>
<path class="st3" d="M25.6,129.2l0.9-0.5l5,9l-0.9,0.5L25.6,129.2z"/>
<path class="st3" d="M36.6,85.3l0.9-0.5l6,10l-0.9,0.5L36.6,85.3z"/>
<path class="st4" d="M57,124v12c0,0,1.8,6.7,11,10c9.3-3.4,11-10,11-10v-12C71.9,121.3,64.1,121.3,57,124z M78,135.8
	c0,0-1.5,6-10,9.2c-8.3-3-10-9.2-10-9.2v-11c6.4-2.5,13.6-2.5,20,0V135.8z"/>
<path id="Rounded_Rectangle_771_copy_2" class="st5" d="M32.1,132.1L17.6,107c-1-1.7-1.4-3.8-1-5.8l10.4-6c2.4,0.4,4.1,1,5.3,3.3
	l14.5,25.1c2.4,4,1.2,9.2-2.9,11.7s-9.2,1.2-11.7-2.9C32.3,132.3,32.2,132.2,32.1,132.1z"/>
<path id="形状_155_copy_4" class="st5" d="M28.5,88.7L25,82.7l-5.8,8L8,91.3l4,6.9l10.2-2.4L28.5,88.7z"/>
<path id="形状_155_copy_3" class="st6" d="M10.8,100.1l-5.5-9.5l12.9-1.7l7-9.8l5.5,9.5l-7.5,9L10.8,100.1z M28.5,88.7L25,82.7
	l-5.8,8L8,92l4,6.2l10.2-2.4L28.5,88.7z"/>
<linearGradient id="Rounded_Rectangle_771_copy_1_" gradientUnits="userSpaceOnUse" x1="17.3453" y1="100.4738" x2="48.2225" y2="131.351">
	<stop  offset="0" style="stop-color:#00C6FF"/>
	<stop  offset="1" style="stop-color:#2760CA"/>
</linearGradient>
<path id="Rounded_Rectangle_771_copy" class="st7" d="M32.1,132.1L17.6,107c-1-1.7-1.4-3.8-1-5.8l2.7-1.6c-1.1,2.2-1,4.8,0.3,6.9
	l13.8,24c2,3.4,6.1,4.7,9.2,3s4-6,2-9.5L31,100c-1.2-2.1-3.4-3.6-5.9-3.7l2.6-1.5c0,0,3.4,1.5,4.6,3.7l14.5,25.1
	c2.4,4,1.1,9.2-2.9,11.7c-4,2.4-9.2,1.1-11.7-2.9C32.2,132.3,32.2,132.2,32.1,132.1z"/>
<path id="DDoS" class="st4" d="M25.1,108c0.4,0.7,1.1,1.3,1.9,1.5c0.8,0.2,1.6,0.1,2.3-0.4c0.7-0.4,1.2-1,1.4-1.8
	c0.1-0.8,0-1.6-0.4-2.3l-0.8-1.4l-5.1,3L25.1,108z M29.6,105.4c0.3,0.5,0.5,1.1,0.4,1.7c-0.1,0.6-0.5,1.1-1.1,1.4
	c-1,0.7-2.3,0.5-3-0.5c-0.1-0.1-0.1-0.2-0.2-0.3l-0.4-0.7l3.9-2.3L29.6,105.4z M28.1,112.9c0.4,0.7,1.1,1.3,1.9,1.5
	c0.8,0.2,1.6,0.1,2.3-0.4c0.7-0.4,1.2-1,1.4-1.8c0.1-0.8,0-1.6-0.4-2.3l-0.8-1.4l-5.1,3L28.1,112.9z M32.6,110.3
	c0.3,0.5,0.5,1.1,0.4,1.7c-0.1,0.6-0.5,1.1-1.1,1.4c-1,0.7-2.3,0.5-3-0.5c-0.1-0.1-0.1-0.2-0.2-0.3l-0.4-0.7l3.9-2.3L32.6,110.3z
	 M30.8,116.5c-0.1,0.5-0.1,1.1,0.2,1.6c0.3,0.5,0.7,0.9,1.3,1c0.6,0.1,1.2,0,1.7-0.3c0.5-0.3,0.9-0.7,1.1-1.3
	c0.1-0.5,0.1-1.1-0.2-1.5c-0.3-0.5-0.8-0.9-1.3-1c-0.6-0.1-1.2,0-1.7,0.3C31.3,115.5,30.9,115.9,30.8,116.5L30.8,116.5z M33.4,115.5
	c0.4,0.1,0.7,0.3,0.9,0.6c0.2,0.3,0.3,0.7,0.1,1c-0.2,0.4-0.5,0.7-0.8,0.9c-0.3,0.2-0.8,0.3-1.2,0.3c-0.4-0.1-0.7-0.3-0.8-0.6
	c-0.2-0.3-0.3-0.7-0.1-1c0.1-0.4,0.4-0.7,0.8-0.9C32.6,115.6,33,115.5,33.4,115.5L33.4,115.5z M32.8,120.4c0,0.2,0,0.5,0.1,0.7
	c0.1,0.3,0.2,0.5,0.3,0.7c0.3,0.5,0.7,0.9,1.1,1.1c0.8,0.3,1.6-0.1,1.9-0.9c0.1-0.5,0.2-1,0.1-1.4c0-0.4,0-0.8,0-1.2
	c0.1-0.2,0.2-0.4,0.4-0.5c0.2-0.1,0.5-0.1,0.7,0c0.3,0.1,0.5,0.4,0.6,0.6c0.3,0.4,0.4,0.8,0.4,1.3l0.7-0.4c-0.1-0.4-0.2-0.8-0.5-1.2
	c-0.3-0.5-0.6-0.8-1.1-1c-0.4-0.2-0.9-0.2-1.3,0.1c-0.3,0.2-0.5,0.4-0.6,0.7c-0.1,0.5-0.2,0.9-0.1,1.4c0,0.3,0,0.6,0,1
	c0,0.2,0,0.3-0.1,0.5c-0.1,0.1-0.2,0.3-0.3,0.3c-0.5,0.3-1,0.1-1.4-0.6c-0.1-0.2-0.2-0.5-0.3-0.8c-0.1-0.3-0.1-0.5,0-0.8L32.8,120.4
	z"/>
<path id="椭圆_13_copy-2" class="st8" d="M45,77c-14.4,0-26-3.2-26-7.1s11.6-7,26-6.9s26,3.2,26,7.1S59.4,77,45,77z M45,64
	c-13.8,0-25,2.6-25,5.9s11.2,6,25,6.1s25-2.6,25-5.9S58.8,64,45,64L45,64z"/>
<path id="椭圆_13_copy_3-2" class="st2" d="M45,71c-5.5,0-10-1.4-10-3s4.5-3,10-3s10,1.4,10,3S50.5,71,45,71z M45,66
	c-5,0-9,0.9-9,2s4,2,9,2s9-0.9,9-2S50,66,45,66L45,66z"/>
<path class="st9" d="M9.6,36.2l0.9-0.5l10,18l-0.9,0.5L9.6,36.2z"/>
<path class="st10" d="M25.6,52.2l0.9-0.5l5,9l-0.9,0.5L25.6,52.2z"/>
<path class="st9" d="M36.6,8.3l0.9-0.5l6,10l-0.9,0.5L36.6,8.3z"/>
<path class="st4" d="M57,47v12c0,0,1.8,6.7,11,10c9.3-3.4,11-10,11-10V47C71.9,44.3,64.1,44.3,57,47z M78,58.8c0,0-1.5,6-10,9.2
	c-8.3-3-10-9.2-10-9.2v-11c6.4-2.5,13.6-2.5,20,0V58.8z"/>
<path class="st11" d="M24.5,1.6l-7,9.8L4.5,13.1l5.5,9.5l12.4-2.5l7.5-9L24.5,1.6z M21.9,19.3l-11.5,2l-4.5-7.8l12-1.2L24.1,3
	l4.5,7.8L21.9,19.3z"/>
<path id="Rounded_Rectangle_771" class="st11" d="M32.9,54.5L18.4,29.4c-1.2-2.2-1.5-4.8-0.6-7.1l0.7,1.2c-0.4,1.8-0.1,3.8,0.8,5.4
	L33.8,54c2,3.6,6.6,4.9,10.2,2.8c3.6-2,4.9-6.6,2.8-10.2c0,0,0-0.1-0.1-0.1L32.2,21.4c-0.9-1.6-2.5-2.9-4.3-3.4l-0.7-1.2
	c2.5,0.4,4.6,1.9,5.8,4.1L47.6,46c2.3,4.1,0.9,9.3-3.2,11.6C40.4,59.9,35.2,58.5,32.9,54.5z"/>
<path id="DDoS-2" class="st11" d="M26.1,32c0.4,0.7,1.1,1.3,1.9,1.5c0.8,0.2,1.6,0.1,2.3-0.4c0.7-0.4,1.2-1,1.4-1.8
	c0.1-0.8,0-1.6-0.4-2.3l-0.8-1.4l-5.1,3L26.1,32z M30.6,29.4c0.3,0.5,0.5,1.1,0.4,1.7c-0.1,0.6-0.5,1.1-1.1,1.4
	c-1,0.7-2.3,0.5-3-0.5c-0.1-0.1-0.1-0.2-0.2-0.3l-0.4-0.7l3.9-2.3L30.6,29.4z M29.1,36.9c0.4,0.7,1.1,1.3,1.9,1.5
	c0.8,0.2,1.6,0.1,2.3-0.4c0.7-0.4,1.2-1,1.4-1.8c0.1-0.8,0-1.6-0.4-2.3l-0.8-1.4l-5.1,3L29.1,36.9z M33.6,34.3
	c0.3,0.5,0.5,1.1,0.4,1.7c-0.1,0.6-0.5,1.1-1.1,1.4c-1,0.7-2.3,0.5-3-0.5c-0.1-0.1-0.1-0.2-0.2-0.3l-0.4-0.7l3.9-2.3L33.6,34.3z
	 M31.8,40.5C31.6,41,31.7,41.6,32,42c0.3,0.5,0.7,0.9,1.3,1c0.6,0.1,1.2,0,1.7-0.3c0.5-0.3,0.9-0.7,1.1-1.3c0.1-0.5,0.1-1.1-0.2-1.5
	c-0.3-0.5-0.8-0.9-1.3-1c-0.6-0.1-1.2,0-1.7,0.3C32.3,39.5,31.9,39.9,31.8,40.5L31.8,40.5z M34.4,39.5c0.4,0.1,0.7,0.3,0.9,0.6
	c0.2,0.3,0.3,0.7,0.1,1c-0.2,0.4-0.5,0.7-0.8,0.9c-0.3,0.2-0.8,0.3-1.2,0.3c-0.4-0.1-0.7-0.3-0.8-0.6c-0.2-0.3-0.3-0.7-0.1-1
	c0.1-0.4,0.4-0.7,0.8-0.9C33.6,39.6,34,39.5,34.4,39.5L34.4,39.5z M33.8,44.4c0,0.2,0,0.5,0.1,0.7c0.1,0.3,0.2,0.5,0.3,0.7
	c0.3,0.5,0.7,0.9,1.1,1.1c0.8,0.3,1.6-0.1,1.9-0.9c0.1-0.5,0.2-1,0.1-1.4c0-0.4,0-0.8,0-1.2c0.1-0.2,0.2-0.4,0.4-0.5
	c0.2-0.1,0.5-0.1,0.7,0c0.3,0.1,0.5,0.4,0.6,0.6c0.3,0.4,0.4,0.8,0.4,1.3l0.7-0.4c-0.1-0.4-0.2-0.8-0.5-1.2c-0.3-0.5-0.6-0.8-1.1-1
	c-0.4-0.2-0.9-0.2-1.3,0.1c-0.3,0.2-0.5,0.4-0.6,0.7c-0.1,0.5-0.2,0.9-0.1,1.4c0,0.3,0,0.6,0,1c0,0.2,0,0.3-0.1,0.5
	c-0.1,0.1-0.2,0.3-0.3,0.3c-0.5,0.3-1,0.1-1.4-0.6c-0.1-0.2-0.2-0.5-0.3-0.8c-0.1-0.3-0.1-0.5,0-0.8L33.8,44.4z"/>
</svg>
