<?xml version="1.0" encoding="utf-8"?>
<!-- Generator: Adobe Illustrator 21.0.0, SVG Export Plug-In . SVG Version: 6.00 Build 0)  -->
<svg version="1.1" id="按钮" xmlns="http://www.w3.org/2000/svg" xmlns:xlink="http://www.w3.org/1999/xlink" x="0px" y="0px"
	 viewBox="0 0 165 72.4" style="enable-background:new 0 0 165 72.4;" xml:space="preserve">
<style type="text/css">
	.st0{fill:#5C5C5C;}
	.st1{fill:#E2151A;}
	.st2{fill:#FFFCE5;}
</style>
<path id="仅限政府与事业单位" class="st0" d="M130.3,71.7v-0.9h4.6c0.6-1.5,1.2-3.6,1.9-6.4l1.1,0.3
	c-0.5,1.4-1.1,3.5-2,6.1h2.9v0.9H130.3L130.3,71.7z M132.8,69.9c-0.5-1.9-1.1-3.6-1.6-5.1l0.9-0.3c0.5,1.4,1.1,3.1,1.7,5.1
	L132.8,69.9z M130.5,62.8h4.1c-0.3-0.6-0.7-1.1-1.2-1.6l0.8-0.6c0.3,0.4,0.8,0.9,1.3,1.6l-0.9,0.6h3.9v0.9h-8L130.5,62.8L130.5,62.8
	z M129.6,72.3h-0.9v-6.7c-0.4,0.7-0.7,1.3-1.2,1.9c-0.1-0.3-0.3-0.7-0.4-1.1c1.1-1.7,2-3.7,2.5-5.7l1,0.2c-0.3,1-0.7,1.9-1,2.8V72.3
	L129.6,72.3z M121.4,72.3h-0.9v-2.5h-5.3V69h5.3v-1.3h-3.2v0.6h-0.9v-5.7h2.4c-0.4-0.4-0.8-0.9-1.2-1.3l0.7-0.6
	c0.6,0.6,1.1,1.1,1.5,1.5l-0.4,0.4h2.8c0.4-0.6,0.9-1.2,1.3-1.9l0.9,0.5c-0.4,0.5-0.8,0.9-1.2,1.4h2.4v5.7h-0.9v-0.6h-3.2V69h5.3
	v0.8h-5.3L121.4,72.3L121.4,72.3z M120.5,63.4h-3.2v1.3h3.2V63.4z M120.5,65.5h-3.2v1.4h3.2V65.5z M124.6,63.4h-3.2v1.3h3.2V63.4z
	 M124.6,66.8v-1.4h-3.2v1.4H124.6z M103.1,70.6h3.8v-9.7h1v9.7h2.1v-9.7h1v9.7h3.8v0.9h-11.6L103.1,70.6L103.1,70.6z M111.3,68.1
	c0.7-1.6,1.4-3.2,2-4.8l0.9,0.4c-0.7,1.9-1.4,3.5-2.1,4.8L111.3,68.1z M103.7,63.6l0.8-0.4c0.6,1.5,1.3,3.1,1.9,4.8l-1,0.4
	C104.9,66.8,104.3,65.2,103.7,63.6z M101.4,70.6h-0.8V70h-3.2v0.7c0.1,0.7-0.3,1.3-1,1.4c-0.1,0-0.2,0-0.3,0c-0.4,0-1,0-1.7,0
	c0-0.3-0.1-0.6-0.1-1c0.5,0.1,1.1,0.1,1.6,0.1c0.3,0,0.6-0.2,0.7-0.5c0-0.1,0-0.1,0-0.2V70H92v-0.7h4.6v-0.9h-5.3v-0.7h5.3v-0.9H92
	v-0.7h4.6v-0.8h-3v0.3h-0.8v-2.5h3.8v-0.8h-5.3v-0.7h5.3v-0.9h0.9v0.9h5.3v0.7h-5.3v0.8h3.8v2.5h-0.8v-0.3h-3v0.8h4.1v1.6h1.3v0.7
	h-1.3L101.4,70.6L101.4,70.6z M96.5,63.8h-3v0.9h3V63.8z M100.3,64.7v-0.9h-3v0.9H100.3z M100.6,66.8h-3.2v0.9h3.2V66.8z
	 M100.6,68.4h-3.2v0.9h3.2V68.4z M82.1,65.3h7.7c-0.1,1.6-0.2,3.2-0.3,4.6c0,0.6-0.3,1.2-0.7,1.7c-0.5,0.3-1.1,0.5-1.8,0.4
	c-0.8,0-1.7,0-2.7,0c-0.1-0.3-0.1-0.6-0.2-1c1.2,0.1,2.1,0.1,2.7,0.1c0.7,0.2,1.5-0.2,1.7-1c0-0.1,0-0.2,0-0.3
	c0.1-1,0.2-2.2,0.3-3.6h-7.7v-0.9l0.5-4.6h1l-0.2,1.9h8.3v0.9h-8.4L82.1,65.3z M87.8,68.9h-8.7V68h8.7V68.9z M69.2,66
	c0.1,2.2-0.4,4.3-1.4,6.2c-0.2-0.3-0.4-0.5-0.7-0.8c0.9-1.7,1.3-3.5,1.2-5.4v-3.8h5c-0.2-0.3-0.4-0.7-0.7-1.2l0.8-0.4
	c0.3,0.4,0.6,0.8,0.9,1.3l-0.6,0.3h5V63h-9.4L69.2,66L69.2,66z M66.1,72.1c-1-0.6-2-1.4-2.8-2.2c-0.9,1-1.9,1.8-3,2.4
	c-0.2-0.3-0.4-0.5-0.6-0.8c1.1-0.6,2.2-1.4,3-2.4c-0.8-1.3-1.4-2.8-1.6-4.4c-0.2,0.2-0.3,0.5-0.5,0.7c-0.2-0.2-0.4-0.4-0.7-0.7
	c0.9-1.2,1.7-2.6,2.1-4l1,0.3c-0.3,0.7-0.6,1.3-0.9,1.9h4.6v0.8h-1.1c-0.1,1.9-0.7,3.7-1.7,5.3c0.8,0.9,1.8,1.6,2.9,2.1
	C66.6,71.5,66.3,71.8,66.1,72.1L66.1,72.1z M64.7,63.8h-2.9c0.2,1.6,0.7,3.1,1.5,4.5C64.1,66.9,64.6,65.4,64.7,63.8L64.7,63.8z
	 M58.9,65.6h1.8v0.8h-1.8v3.1c0.7-0.1,1.3-0.3,2-0.4c0,0.3,0,0.6,0,0.9c-2.2,0.4-4.1,0.7-5.7,1.1l-0.1-0.9c0.3,0,0.6-0.1,0.9-0.2
	v-5.5h0.9v5.4c0.4-0.1,0.8-0.1,1.2-0.2v-7.1h-2.7v-0.8H61v0.8h-2v3H58.9z M54,71.9c-2.1-1-3.6-2.8-4.2-5h-1v4c0.5-0.2,1.2-0.6,2.1-1
	c0,0.4,0,0.7,0.1,0.9c-0.7,0.3-1.4,0.7-2,1.1c-0.2,0.1-0.4,0.3-0.6,0.5l-0.7-0.9c0.2-0.2,0.4-0.5,0.3-0.8v-9.3h5.6v5.8h-0.9v-0.3h-2
	c0.2,0.7,0.6,1.3,1,1.9c0.8-0.5,1.5-1.1,2.2-1.7l0.6,0.7c-0.9,0.6-1.6,1.1-2.3,1.5c0.7,0.7,1.6,1.3,2.6,1.7
	C54.5,71.3,54.2,71.6,54,71.9L54,71.9z M52.6,62.1h-3.8v1.6h3.8V62.1z M52.6,66.1v-1.6h-3.8v1.6H52.6L52.6,66.1z M46.1,70.2
	c-0.4,0.1-0.8,0.1-1.2,0c-0.1-0.3-0.2-0.7-0.3-1c0.4,0.1,0.7,0.1,1.1,0.1c0.5-0.1,0.7-0.7,0.5-1.7c-0.2-0.8-0.6-1.5-1.1-2.1
	c0.3-0.9,0.7-2,1.1-3.4h-1.7v10.2h-0.9v-11h3.6v0.8c-0.4,1.1-0.8,2.2-1.1,3.3c0.5,0.7,0.9,1.5,1.1,2.3C47.4,69.2,47,70,46.1,70.2
	L46.1,70.2z M42.1,72.2c-1.3-0.6-2.5-1.5-3.5-2.5c-1.1,1.1-2.4,1.9-3.7,2.6c-0.2-0.2-0.4-0.5-0.7-0.9c1.4-0.6,2.7-1.5,3.8-2.5
	c-1.4-1.9-2.2-4.1-2.4-6.5H35v-0.8h7v0.8c-0.3,2.4-1.2,4.7-2.7,6.5c1,1,2.2,1.8,3.6,2.3C42.5,71.6,42.2,71.9,42.1,72.2L42.1,72.2z
	 M40.9,62.4h-4.5c0.2,2.1,0.9,4.1,2.1,5.7C39.9,66.5,40.7,64.5,40.9,62.4L40.9,62.4z M33.5,72.2h-0.9v-6.6c-0.4,0.6-0.8,1.2-1.2,1.7
	c-0.1-0.3-0.2-0.7-0.4-1c1.2-1.7,2.2-3.5,2.8-5.5l0.9,0.3c-0.4,1-0.8,2-1.2,2.9V72.2L33.5,72.2z M72.6,63.6c-0.3,0.6-0.6,1.3-1,1.8
	v6.8h-0.9v-5.3c-0.3,0.4-0.6,0.9-0.9,1.2c-0.1-0.3-0.3-0.6-0.5-0.9c1-1.2,1.8-2.5,2.4-3.9L72.6,63.6z M73.8,69.6
	c-0.3-0.8-0.7-1.6-1.1-2.4l0.8-0.4c0.4,0.8,0.8,1.6,1.1,2.4L73.8,69.6z M76,63.4h0.9v2h1.6v0.8h-1.6v4.5c0.1,0.7-0.3,1.3-1,1.4
	c-0.1,0-0.2,0-0.3,0h-1.7c0-0.3-0.1-0.6-0.2-1c0.6,0,1.1,0.1,1.5,0.1c0.4,0.1,0.7-0.2,0.8-0.5c0-0.1,0-0.1,0-0.2v-4.3h-3.9v-0.8H76
	V63.4L76,63.4z"/>
<path class="st1" d="M26.8,51.2c0,0-10.5-0.5-14.1-2.3s-10.1-2.7-9.8-6.1C3,39.9,2.5,37,1.4,34.4c-1-2.7,1.2-4.6,1.4-7.6
	s1.3-3.4,0-6.1c-1.1-2.6-0.5-5.6,1.4-7.6C5.6,11.8,2.9,39.4,1.4,36s-2.3-4.4,0-7.6s1.3-3.4,1.4-5.3s0.6,11.7,0,6.9s4.5-7.7,1.4-11.4
	s-4.7-4.3-2.8-6.9s2.8,6.6,2.8,3.8s-2.4-3.7,1.4-6.1s2.9-5.3,9.8-5.3s5.7,0.4,12.7,0s4.9-0.8,11.3-1s8-1.7,0-1.5s0.1-1.1,2.8-0.8
	s5.2,1,8.4,1.5s3.3,1.2,5.6,0.8S56,3,60.4,2.3s4.2-0.5,9.8-0.8s6.9-1.4,8.4-0.8s1.5,4.8,4.2,4.6s6.5-3.3,9.8-3.8s3.8-0.8,5.6,0
	s4.5,0,5.6,0s1.9-0.1,4.2,0s0.9-1.2,4.2-0.8s2.9-0.5,7-0.8s3.1,0.3,8.4,0.8s5.1,0,8.4,0s2.3,1.1,5.6,0.8s4.1-0.3,9.8,0.8
	s9,0.7,9.8,3s-1.2,6.8,0,9.1s0.7-8.7,1.4-6.1c0.6,2.5,0.6,5.1,0,7.6c-0.5,2.1-3,3.2-1.4,6.1s1.8,2.4,1.4,4.6s-3.3,0.4-1.4,3.8
	s1.4-18.4,1.4-15.2s2.6,5.2,1.4,6.1s-0.6,3.5-1.4,4.6s-4.4,2.5-2.8,4.6c1.4,1.5,2.3,3.3,2.8,5.3c0.1,1.4,2.5-24.6,0-22.1
	s1,3.3,1.4,6.9s-1,4.4-1.4,5.3s-2.3,1-1.4,3.8s0.8,1.1,1.4,4.6s1,5.1,0,6.1s3.1,3.2,0,4.6s0.6,5.1-5.6,5.3s-4.5-1.7-12.7,0
	s-8.8,4-12.7,2.3s-6.9-0.8-11.2-0.8s-6.2-1.9-12.7-1.5s-7.9,3.6-14.1,3.8c-5.6,0.2-11.3,0-16.9-0.8c-7.2-0.8-8.6-0.4-11.3,0
	s-12.6-0.1-15.5,0s-1.9,1.9,0,1.5s-3-1.2-5.6-2.3c-2.2-0.9-4.6-1.4-7-1.5C35.9,51,26.8,51.2,26.8,51.2z"/>
<path id="立即免费接入" class="st2" d="M32.4,34.7h16.9v-1.4h-6.1c1.4-2.9,2.6-5.8,3.7-8.9l-1.6-0.6c-1,3.2-2.3,6.4-3.8,9.4
	h-9.1L32.4,34.7L32.4,34.7z M32.8,23.2h16v-1.4h-16V23.2L32.8,23.2z M37.8,32.3l1.6-0.6c-1-2.5-2-5.1-3.1-7.5l-1.4,0.6
	C35.9,27,36.8,29.5,37.8,32.3L37.8,32.3z M40.6,21.7l1.4-0.8c-0.6-1-1.2-1.9-1.8-2.7L38.9,19C39.6,19.9,40.1,20.9,40.6,21.7
	L40.6,21.7L40.6,21.7z M54.9,29.5c0.5,0.6,0.9,1.2,1.4,1.8c-1.3,0.6-2.6,1.2-3.7,1.7v-4.6H57v0.4h1.3v-9.1h-7v13
	c0,0.5-0.2,1-0.5,1.3l1,1.2c0.3-0.3,0.7-0.5,1.1-0.8c1.2-0.6,2.6-1.3,4.3-2.1c0.5,0.6,0.9,1.2,1.3,1.8l1.1-0.8
	c-1-1.3-2.1-2.8-3.6-4.5L54.9,29.5z M60.2,35.9h1.3V21.2H65v8.9c0.1,0.6-0.3,1.1-0.9,1.2c-0.1,0-0.2,0-0.3,0c-0.4,0-1.1,0-1.9-0.1
	c0.1,0.5,0.2,1,0.2,1.5c0.8,0,1.5,0,2,0c1.1,0.1,2-0.6,2.2-1.7c0-0.2,0-0.4,0-0.5V19.8h-6.2L60.2,35.9L60.2,35.9z M52.5,27.1v-2.5
	h4.4V27L52.5,27.1L52.5,27.1z M56.9,23.3h-4.4v-2.5h4.4V23.3z M68.9,36c3.8-1.5,6.3-3.7,7.3-6.7h5.5V30H83v-6.4h-4.2l2-2v-1.2H74
	c0.3-0.4,0.6-0.9,0.9-1.4l-1.3-0.5c-1.5,2.4-3.5,4.4-5.8,6c0.5,0.6,0.8,1,0.9,1.2c0.4-0.3,0.8-0.6,1.2-1V30h1.3v-0.7h3.5
	c-1.1,2.5-3.4,4.3-6.8,5.4C68.4,35.1,68.7,35.5,68.9,36L68.9,36L68.9,36z M81.7,28.1h-5.1c0.2-1.1,0.4-2.2,0.5-3.3h4.6V28.1z
	 M71.3,24.8h4.4c0,1.1-0.2,2.2-0.5,3.3h-3.9V24.8z M77,23.5h-5.8c0.6-0.6,1.2-1.3,1.8-2h6L77,23.5z M76.4,33
	c-0.1,0.6,0.1,1.3,0.5,1.8c0.5,0.4,1.2,0.6,1.8,0.5h3.5c1.6,0,2.5-0.6,2.7-1.9c0.1-0.8,0.2-1.6,0.3-2.5c-0.4-0.2-0.9-0.3-1.3-0.5
	c0,0.9-0.1,1.7-0.3,2.6c-0.1,0.7-0.7,1.2-1.4,1.1l0,0h-3c-0.4,0-0.8-0.1-1.1-0.3c-0.2-0.3-0.3-0.7-0.3-1v-2.6h-1.3L76.4,33L76.4,33z
	 M87,21.1h5c0,0.6,0,1.1-0.1,1.5h-4.2l-0.6,3.6H91c-0.8,1.3-2.6,2.2-5.3,2.7c0.3,0.4,0.5,0.8,0.8,1.2c0.8-0.2,1.6-0.5,2.4-0.9V33
	h1.3v-3.8H99v3.6h1.3v-4.3h0.5c0.8,0.1,1.5-0.4,1.6-1.2c0,0,0,0,0-0.1c0.1-0.7,0.2-1.4,0.2-2.2h-5v-1.6h2.9v0.4h1.3v-4h-4.2v-1.5
	h-1.2v1.5h-3c0-0.5,0-1,0-1.5H92c0,0.5,0,1,0,1.5h-5V21.1z M99,28.2h-8.1c0.7-0.5,1.3-1.2,1.6-2h3.8V28h1.2v-1.7h3.7
	c0,0.2,0,0.5-0.1,0.7c-0.1,0.4-0.4,0.6-0.8,0.5c-0.5,0-1.1,0-1.6-0.1C98.9,27.7,98.9,28,99,28.2L99,28.2L99,28.2z M92.8,33.3
	c-1.9,0.8-4,1.2-6.1,1.4c0.2,0.4,0.4,0.8,0.6,1.3c4-0.5,6.4-1.3,7.2-2.5c2.3,0.8,4.7,1.6,7,2.5l0.6-1.3c-2.2-0.8-4.6-1.6-7.2-2.3
	c0.2-0.6,0.2-1.3,0.2-2H94C94,31.9,93.6,32.9,92.8,33.3L92.8,33.3L92.8,33.3z M93.1,23.6h3.2v1.6h-3.4C93,24.7,93.1,24.2,93.1,23.6
	L93.1,23.6z M88.8,23.6h3c0,0.5-0.1,1.1-0.3,1.6h-2.9L88.8,23.6z M93.2,21.1h3.1v1.5h-3.1C93.2,22.2,93.2,21.6,93.2,21.1L93.2,21.1
	L93.2,21.1z M100.5,22.6h-2.9v-1.5h2.9V22.6L100.5,22.6z M109.1,35.8c2.2-0.4,4.4-1.2,6.3-2.4c1.8,0.8,3.3,1.6,4.6,2.3l0.8-1.3
	c-1.4-0.6-2.8-1.2-4.3-1.9c0.9-0.9,1.6-2,2-3.3h2.3V28h-6.7c0.3-0.4,0.6-0.9,0.8-1.4l-1.3-0.5c-0.3,0.6-0.6,1.3-1,1.9H109v1.2h2.9
	c-0.4,0.6-0.9,1.3-1.4,2c1.2,0.5,2.4,1.1,3.5,1.5c-1.7,0.9-3.6,1.4-5.5,1.7C108.7,34.9,108.9,35.3,109.1,35.8L109.1,35.8L109.1,35.8
	z M103.8,29.4c0.7-0.2,1.4-0.5,2.2-0.8v4.6c0.1,0.4-0.2,0.8-0.6,0.9c-0.1,0-0.1,0-0.2,0c-0.3,0-0.8,0-1.5-0.1c0.1,0.5,0.2,1,0.2,1.5
	c0.7,0,1.2,0,1.6,0c1.1,0,1.7-0.6,1.7-1.9v-5.4c0.6-0.2,1.1-0.4,1.7-0.6c-0.1-0.5-0.1-0.9-0.1-1.4c-0.5,0.2-1.1,0.4-1.6,0.5v-3.6h2
	v-1.3h-2v-3.3h-1.3v3.3h-2.2v1.3h2.2v4c-0.8,0.2-1.6,0.5-2.4,0.7L103.8,29.4z M109,26h11.9v-1.2h-3.6c0.6-0.7,1.2-1.4,1.8-2.2
	l-1.3-0.7c-0.6,0.9-1.2,1.9-2,2.9H109V26L109,26z M109.7,21.7h10.8v-1.2h-4.9l0.4-0.2c-0.3-0.6-0.7-1.3-1.1-1.9l-1.2,0.5
	c0.3,0.5,0.6,1,0.9,1.6h-4.9L109.7,21.7L109.7,21.7z M113.3,29.3h3.8c-0.4,1.1-1.1,2-1.9,2.7c-0.9-0.4-1.9-0.8-2.8-1.2
	C112.6,30.4,113,29.9,113.3,29.3L113.3,29.3L113.3,29.3z M112.8,24.7l1.1-0.8c-0.5-0.7-1-1.4-1.6-2l-1,0.7
	C111.8,23.3,112.3,24,112.8,24.7L112.8,24.7L112.8,24.7z M129.1,22.7c-1.3,5.2-3.9,9-7.6,11.4c0.4,0.4,0.8,0.8,1.1,1.3
	c3.7-2.6,6.4-6.5,7.5-10.9c0.2,0.4,0.3,0.7,0.5,1.1c2.2,4.9,4.5,8.1,7.1,9.6l1.2-1.5c-2.5-1.1-4.9-4-7.1-8.8c-1.6-3.3-3-5.4-4.3-6.2
	l-1.2,0.8C127.5,20.3,128.5,21.4,129.1,22.7L129.1,22.7L129.1,22.7z"/>
</svg>
