<?xml version="1.0" encoding="utf-8"?>
<!-- Generator: Adobe Illustrator 21.0.0, SVG Export Plug-In . SVG Version: 6.00 Build 0)  -->
<svg version="1.1" id="Layer_1" xmlns="http://www.w3.org/2000/svg" xmlns:xlink="http://www.w3.org/1999/xlink" x="0px" y="0px"
	 viewBox="0 0 422.6 67.7" style="enable-background:new 0 0 422.6 67.7;" xml:space="preserve">
<style type="text/css">
	.st0{fill:#FFFFFF;}
</style>
<path id="云盾安孵计划" class="st0" d="M397.3,66.7h-9.8l-1.5-6.2c3.2,0.3,6.2,0.4,9,0.4c1.9,0,2.9-1,2.9-2.8V4.8h6.4v55
	C404.4,64.4,402,66.7,397.3,66.7z M384.4,10.5h6.3v42h-6.3V10.5L384.4,10.5z M373.6,60c1.1-0.2,2.2-3.5,3.3-9.8l5.4,3.5
	c-0.8,3-1.9,6-3.3,8.8c-1.5,2.9-3.2,4.4-5.1,4.4c-3.3,0-6.5-2.2-9.7-6.6c-1.2-1.6-2.2-3.3-3.1-5.1c-4.1,3.4-8.6,6.1-13.5,8.2
	l-3.9-5.8c5.4-2.1,10.3-5.1,14.6-8.9c-0.9-2.5-1.7-5.1-2.4-7.7c-1-3.8-1.7-7.8-2.1-11.7l-8.3,1.3l-1-6.3l8.6-1.4
	c-0.5-5.4-0.8-11.6-0.8-18.3h6.5c0,6.4,0.1,12.2,0.5,17.3l18.8-2.9l1,6.3l-19.2,2.9c0.2,2.8,0.6,5.6,1.2,8.4
	c0.5,2.4,1.1,4.7,1.8,7.1c3.7-4.5,6.8-9.4,9.1-14.7L378,32c-3,6.9-7.2,13.3-12.3,18.9c0.4,1.1,0.9,2.1,1.5,3.1
	C369.5,58,371.7,60,373.6,60L373.6,60z M362.8,6.9l5.3-2.6c2.6,3.2,4.9,6.5,7.1,9.9l-5.4,2.7C367.7,13.5,365.4,10.1,362.8,6.9
	L362.8,6.9z M315.2,67.5h-6.7V30.8h-17.8v-6.4h17.8V4.5h6.7v19.9h16.9v6.4h-16.9V67.5L315.2,67.5z M273.9,9.5l4.5-4.4
	c4.1,3,7.8,6.4,11.2,10.1l-4.4,4.5C281.8,15.9,278,12.5,273.9,9.5L273.9,9.5z M285.1,53.8c2.2-1.8,4.4-3.8,6.8-6.1l1.7,6.6
	c-4.3,4.1-9,7.7-14,10.9l-2.4-5.8c1.1-0.8,1.8-2.1,1.8-3.5V31h-9.5v-6.2h15.7V53.8L285.1,53.8z M246.8,59.9c0,4.4-2,6.7-6,6.7H234
	l-1.5-5.6c2.4,0.3,4.4,0.5,5.9,0.5s2.3-1,2.3-3.1v-9.2h-9.5v-5.8h9.5v-3.4c1.8-1.6,3.5-3.5,5-5.4h-13V29h20.1v4.4
	c-1.9,2.6-3.9,5.1-6.1,7.4v2.4h9.3v5.8h-9.3L246.8,59.9L246.8,59.9z M251.3,27.6l-4.6-1.6c1.8-3.9,3.2-7.9,4.1-12.1l4.7,1.2
	C254.5,19.4,253.1,23.6,251.3,27.6L251.3,27.6z M232.4,13.9l-1.8-5.3c8.8,0,16.2-1.1,22.4-3.2l2.8,5
	C249.9,12.6,242.1,13.9,232.4,13.9L232.4,13.9z M223.6,53.6h-2.8l-1.4-4.9v18.1h-5.3V9.1h15.1v37.5
	C229.3,51.2,227.4,53.6,223.6,53.6L223.6,53.6z M224,14.3h-4.6v9.2l1-0.3c1.3,2.6,2.4,5.2,3.5,8L224,14.3L224,14.3z M224,37.6
	l-1.4,0.6c-1-3.1-2-6.1-3.1-8.7v18.7l2.3,0.2c1.5,0,2.2-1,2.2-2.9L224,37.6L224,37.6z M202.2,22.6l1.2-0.3c1.2,1.8,2.2,3.7,3.1,5.6
	V15.4h5.2v20.7c-0.1,14.2-4.1,24.6-11.8,31.2l-4.5-4c5-3.9,8.3-9.3,9.9-16.4c-2.7,1.6-5.6,3.3-8.7,5l-1.6-5.4c1.4-0.8,2-2.5,2-5
	V10.7c4.4-1.4,8.5-3.4,12.3-6.1l3.2,4.6c-3.2,2.2-6.7,3.9-10.4,5.2L202.2,22.6L202.2,22.6z M202.2,43.2c1.4-0.8,2.8-1.6,4-2.4
	c0.1-1.6,0.3-3.1,0.3-4.7v-2.4L205,34c-0.8-2.3-1.7-4.5-2.9-6.6L202.2,43.2L202.2,43.2z M159.4,51.8c6.7,2.9,13.6,6.3,20.7,10.1
	l-4.4,5.7c-7-4.1-14-7.8-20.9-10.9c-7.7,6.7-17.7,10.2-30.1,10.5l-3.7-6c11.2-0.1,20.2-2.6,27.1-7.5c-6.1-2.6-12.2-4.9-18.3-6.8
	c2.3-3.7,4.5-7.4,6.6-11.1h-15.4v-6.3h18.8c1.9-3.5,3.7-7,5.5-10.5l6.7,2c-1.6,3-3.1,5.8-4.6,8.6h33.9v6.3h-13.1
	C166,41.5,163,46.9,159.4,51.8L159.4,51.8z M143.9,35.8c-1.8,3.1-3.5,6-5.1,8.5c4.6,1.4,9.4,2.9,14.2,4.8c3.4-4,6.2-8.5,8.1-13.3
	L143.9,35.8L143.9,35.8z M173.5,17h-44.9v9H122V10.7h25.4c-0.8-1.9-1.8-3.7-2.9-5.5l7.3-1.2c1,2,1.9,4.3,2.9,6.7H180v15.4h-6.5V17z
	 M245.7,24.8l-4.1,1.1c-0.8-3.3-1.8-6.5-3.1-9.6l4.1-1.4C243.7,18.1,244.8,21.4,245.7,24.8L245.7,24.8z M230.6,17.9l4.3-1.4
	c1.5,3.2,2.7,6.6,3.6,10.1l-4.3,1.1C233.3,24.3,232.1,21,230.6,17.9L230.6,17.9z M114.6,5c0.1,1.1,0.4,2.1,1,3c-0.3,0.4-0.6,0.7-1,1
	c-2.1-1.1-3-4-3-4V0h5v5H114.6z M106.6,5c0.1,1.1,0.4,2.1,1,3c-0.3,0.4-0.6,0.7-1,1c-2.1-1.1-3-4-3-4V0h5v5H106.6z M411.6,5
	c-0.1,1.1-0.4,2.1-1,3c0.3,0.4,0.6,0.7,1,1c2.1-1.1,3-4,3-4V0h-5v5H411.6z M419.6,5c-0.1,1.1-0.4,2.1-1,3c0.3,0.4,0.6,0.7,1,1
	c2.1-1.1,3-4,3-4V0h-5v5H419.6z M4.4,28.8v1.6h32.3v-1.6L4.4,28.8L4.4,28.8z M0,41.9v1.6h16.6C11.3,54.4,7,61,3.8,63.4
	c-0.1,0.1-0.3,0.1-0.4,0.2l0.4,1.5c11.4-0.6,21.8-1.5,31.4-2.5c0.9,1.7,1.7,3.5,2.5,5.2l1.3-1c-2.9-6-6.3-11.7-10-17.2l-1.3,0.8
	c2.5,3.7,4.7,7.3,6.6,10.8c-9.4,1.1-18.9,1.9-28.4,2.3c3.4-3.3,7.5-9.9,12.3-20h22.5v-1.6H0z M88.4,26.3
	c-10.8,1.8-21.7,2.8-32.7,2.8v18.1c-0.2,8-2,14.2-5.4,18.7l1.1,1.1c3.7-5,5.6-11.6,5.8-19.9v-9.8h16.9c-0.2,1.9-0.4,3.8-0.6,5.7
	H62.3v24.1h1.6v-2.6h22v2.6h1.5V43.1H75.1c0.3-1.8,0.5-3.7,0.7-5.7h15.8v-1.5H75.8c0.1-1.7,0.3-3.4,0.4-5.2l-1.5-0.2
	c-0.1,1.8-0.2,3.7-0.4,5.5H57.3v-5.4c10.7-0.1,21.3-1,31.9-2.8L88.4,26.3z M63.9,63.1v-5.5h22v5.5H63.9L63.9,63.1z M63.9,56.2v-5.1
	h22v5.1L63.9,56.2L63.9,56.2z M63.9,49.7v-5.2h22v5.2H63.9L63.9,49.7z"/>
</svg>
