<?xml version="1.0" encoding="utf-8"?>
<!-- Generator: Adobe Illustrator 21.0.0, SVG Export Plug-In . SVG Version: 6.00 Build 0)  -->
<svg version="1.1" id="Layer_1" xmlns="http://www.w3.org/2000/svg" xmlns:xlink="http://www.w3.org/1999/xlink" x="0px" y="0px"
	 viewBox="0 0 272.1 63" style="enable-background:new 0 0 272.1 63;" xml:space="preserve">
<style type="text/css">
	.st0{fill:#FFFFFF;}
</style>
<path id="太极抗" class="st0" d="M264.8,54.4c-5,5.5-12.2,8.3-21.4,8.3h-20.2v-60h21.3c9.3,0,16.4,2.8,21.1,8.4
	c4.3,5,6.5,12.3,6.5,21.6C272,41.8,269.6,49.1,264.8,54.4z M261.7,14c-3.9-4.5-9.9-6.7-18-6.7h-15.5v50.9h14.4
	c8,0,14.1-2.3,18.3-6.8c4-4.4,6-10.6,6-18.6C267,24.3,265.2,18.1,261.7,14L261.7,14z M209.9,62.1c-1.4,0.6-2.8,0.8-4.3,0.7h-2.8
	c-3.7,0-5.4-1.8-5.4-5.2V27h-13.3v10.2c0,6.1-0.7,11.1-2.2,15c-1.5,4-4.4,8-8.6,11.8l-2.7-2.4c3.4-2.8,6.1-6.3,8-10.3
	c1.4-3.3,2.1-8,2.1-14.1V23.5h20.2v33.7c0,1.6,0.7,2.4,2,2.4h2.2c0.6,0,1.3-0.1,1.9-0.3c0.4-0.1,0.8-0.4,1-0.7
	c0.4-0.5,0.7-3.9,0.7-9.9l3.3,1c0,3-0.1,6-0.5,9C211.5,60,210.9,61.2,209.9,62.1L209.9,62.1z M174.6,10.9h15.9
	c-1.2-3.2-2.7-6.3-4.4-9.2l3.7-0.7c1.6,3.2,3.1,6.5,4.4,9.9H209v3.7h-34.4V10.9L174.6,10.9z M163.7,56.6c0,4.1-2,6.1-5.9,6.1h-5.7
	l-0.8-3.5c1.8,0.1,3.6,0.2,5.2,0.2c2.4,0,3.6-1.2,3.6-3.7V39c-3.2,1.2-6.5,2.3-9.7,3.3l-1-3.7c3.7-1,7.2-2,10.7-3.3V18.1h-9.4v-3.6
	h9.4V1.8h3.6v12.8h8.8v3.6h-8.8V34c3.1-1.4,6.1-2.8,9.1-4.4v3.7c-3,1.6-6,3-9.1,4.3L163.7,56.6L163.7,56.6z M134.6,63.4
	c-4.8-3.1-9.2-6.8-13.1-11.1c-4.4,4.6-9.6,8.4-15.3,11.2l-2-3.3c5.6-2.6,10.6-6.3,14.9-10.7c-4.8-6.2-8.4-13.4-10.4-21
	c-1.5,15.2-5.6,26.8-12.2,34.8l-2.9-2.4c7.9-9.4,12-24.5,12.1-45.2V8.3h-8.3V4.7h31.2v2.4c-1.5,6.4-2.9,11.9-4.3,16.4h9.3v2.2
	c-1.4,9.5-4.7,17.4-9.8,23.9c3.8,4.1,8.2,7.8,13,10.7L134.6,63.4z M130,26.8h-10.1c2-6.1,3.6-12.2,4.8-18.5h-15.4v7.2
	c0,0.7-0.1,1.4-0.1,2c1.6,11.3,5.6,20.9,12.1,29C125.8,40.8,128.8,34,130,26.8L130,26.8z M98.8,19h-8.6v5.2c3.1,3.6,6.3,7.6,9.4,12
	l-2.1,3.2c-2.8-4.7-5.2-8.4-7.3-11.2v35.2h-3.6V26.3c-2.2,7.3-5.6,14.3-9.9,20.6L75.2,43c5.3-7.2,9.1-15.4,11.1-24.1H76.2v-3.6h10.4
	V1.7h3.6v13.7h8.6L98.8,19L98.8,19z M60.3,63.6c-14.4-9.4-24.3-22.7-29.4-40c-1.5,7.7-4.5,15.1-8.6,21.8c4.4,4.2,8.4,8.6,12.1,13.4
	l-2.7,2.7c-3.5-4.7-7.3-9.1-11.4-13.2C15.5,54.6,9.4,59.8,2.4,63.5L0,60.4c15.4-7.9,24.7-21.3,27.8-40.3H1.6v-3.7h26.7
	C28.8,12.8,29,9,29,5V1.9h3.7v2.2c0,4.1-0.2,8.2-0.7,12.3h29.1v3.7H33.4C38.2,37.8,48,51.2,62.6,60.6L60.3,63.6z M250.7,16.1
	c2.3,0,4.3,1.9,4.3,4.2s-1.9,4.3-4.2,4.3c-2.3,0-4.3-1.9-4.3-4.2c0,0,0,0,0,0C246.6,18,248.4,16.2,250.7,16.1L250.7,16.1L250.7,16.1
	z M251,31.7c-0.6,0-1.4-0.3-2-0.3c-5.9-1.1-9.7-6.7-8.6-12.6c0.7-3.7,3.2-6.7,6.7-8.1c-8.6,1.5-15.4,8.3-16.8,17
	c-2,11.4,5.5,22.3,16.8,24.6c1.3,0.4,2.6,0.5,3.9,0.3h0.8c5.7-0.4,10.1-5.1,10.1-10.8C261.7,36,256.8,31.5,251,31.7L251,31.7
	L251,31.7z M250.7,45.8c-2.3,0-4.3-1.9-4.3-4.2s1.9-4.3,4.2-4.3c2.3,0,4.3,1.9,4.3,4.2c0,0,0,0,0,0c0.1,2.3-1.8,4.2-4,4.2
	C250.8,45.8,250.8,45.8,250.7,45.8L250.7,45.8z"/>
</svg>
