<?xml version="1.0" encoding="utf-8"?>
<!-- Generator: Adobe Illustrator 21.0.0, SVG Export Plug-In . SVG Version: 6.00 Build 0)  -->
<svg version="1.1" id="Layer_1" xmlns="http://www.w3.org/2000/svg" xmlns:xlink="http://www.w3.org/1999/xlink" x="0px" y="0px"
	 viewBox="0 0 150 39" style="enable-background:new 0 0 150 39;" xml:space="preserve">
<style type="text/css">
	.st0{fill:url(#Rectangle_511_copy_3_1_);}
</style>
<linearGradient id="Rectangle_511_copy_3_1_" gradientUnits="userSpaceOnUse" x1="0" y1="19.501" x2="150" y2="19.501">
	<stop  offset="0" style="stop-color:#600000"/>
	<stop  offset="1" style="stop-color:#FF0000"/>
</linearGradient>
<path id="Rectangle_511_copy_3" class="st0" d="M0,39v-4h16l0.4,1.7c6.3-0.5,12.3-1,17.9-1.7h8.5c0.5,1,1,2,1.4,3l3.7-2.6
	c-0.1-0.1-0.1-0.3-0.2-0.4H150v4L0,39L0,39z M45,30h13.2l1,3.6h5l0.9-3.6h9.4l0.9,3.6h4.9l1-3.6h8.7l-1.4,3.6h5l1.3-3.6h14.5
	l1.3,3.6h5l-1.4-3.6h4.2v3.6h4.7V30H150v4H47.3C46.6,32.7,45.9,31.4,45,30z M123.3,25H150v4h-26.7V25z M123.3,21.1h13.9V20H150v4
	h-26.7V21.1z M137.2,17.1h-13.9V15H150v4h-12.8V17.1z M123.3,10H150v4h-26.7V10z M138,5.3h-19.4V9h-12.2L105,5.3h-5.3L98.3,9H87.6
	l1.1-3.7h-5.3L82.4,9h-9.2l-0.9-3.7h-4.8l-1,3.7h-9.2l-0.9-3.7h-5.2L52.1,9H0V5h16.8v2h28.7V5H150v4h-12V5.3z M45.5,3H16.8v1H0V0
	h150v4H45.5V3L45.5,3z M53.6,14h-4.5v-0.1H13V14H0v-4h52.4L53.6,14z M13,18h12.7c-0.2,0.3-0.3,0.7-0.5,1H0v-4h13V18z M22.4,24H0v-4
	h24.6C23.9,21.5,23.1,22.8,22.4,24z M23.3,30h16.9c0.1,0.1,0.1,0.2,0.2,0.2c-6.2,0.9-12.5,1.5-18.8,2C22.1,31.6,22.7,30.8,23.3,30
	L23.3,30z M39.6,29H24c0.8-1.2,1.6-2.5,2.5-4h10.7C38,26.3,38.8,27.7,39.6,29z M53.9,15l1.2,4H29.8c0.2-0.3,0.3-0.7,0.5-1h18.8v-3
	H53.9z M39.7,21.6l-3.3,2.1c0.1,0.1,0.2,0.3,0.2,0.4h-9.5c0.7-1.2,1.4-2.6,2.2-4h26.1l1.2,4H41.3C40.8,23.2,40.2,22.4,39.7,21.6z
	 M41.9,25h14.8l1.2,4H44.4C43.7,27.7,42.8,26.4,41.9,25L41.9,25z M73,24h-6.3l1.1-4h4.2L73,24z M70,12.3l0.4,1.7h-1l0.4-1.7H70z
	 M71.7,19H68l1.1-4h1.6L71.7,19z M66.5,25h6.8l1,4h-8.9L66.5,25z M81.7,29l1.2-4h9.2l-1.5,4H81.7z M83.2,24l1.2-4H94l-1.5,4H83.2z
	 M84.7,19l1.2-4H96l-1.5,4H84.7z M96.4,26.5h11.9l0.9,2.5H95.5L96.4,26.5z M118.6,14h-10.3l-1.5-4h11.8L118.6,14L118.6,14z M86.1,14
	l1.2-4h10.6l-1.5,4H86.1z M106.9,22.7h-9.1l1-2.7h7.2L106.9,22.7z M102.4,10.3l1.3,3.7h-2.8l1.3-3.7H102.4z M105.6,19h-6.4l1.4-4
	h3.6L105.6,19z M108.7,15h9.9v4h-8.4L108.7,15z M114.1,29l-1.5-4h6.1v4H114.1L114.1,29z M110.6,20h8v4h-6.5L110.6,20z M73.5,10h8.7
	l-1,4h-6.7L73.5,10z M74.8,15H81l-1,4h-4.1L74.8,15z M77.9,26.8L77.4,25h1.1L78,26.8L77.9,26.8L77.9,26.8z M76.1,20h3.6l-1,4h-1.6
	L76.1,20z M57.5,10h8.7l-1,4h-6.7L57.5,10z M58.7,15h6.2l-1,4h-4.1L58.7,15z M61.7,26.8L61.2,25h1.1l-0.5,1.8H61.7z M60,20h3.6
	l-1.1,4H61L60,20z M19.2,29H0v-4h21.8C21,26.4,20.2,27.7,19.2,29z M16.3,32c-0.3,0.2-0.6,0.3-1,0.4l0.4,1.5H0v-4h18.4
	C17.8,30.8,17.1,31.4,16.3,32z"/>
</svg>
