<?xml version="1.0" encoding="utf-8"?>
<!-- Generator: Adobe Illustrator 21.0.0, SVG Export Plug-In . SVG Version: 6.00 Build 0)  -->
<svg width="28" height="32" version="1.1" id="Layer_1" xmlns="http://www.w3.org/2000/svg" xmlns:xlink="http://www.w3.org/1999/xlink" x="0px" y="0px"
	 viewBox="0 0 27.5 31.3" style="enable-background:new 0 0 27.5 31.3;" xml:space="preserve">
<style type="text/css">
	.st0{fill:#FFFFFF;}
</style>
<path id="logo_copy_3" class="st0" d="M25.1,2.9c0.8,0,1.6,0,2.4,0.1V0H0.9v10.1C8.1,5.4,16.5,2.9,25.1,2.9z M19.8,12l0.6,7.3
	l-6.3,4.8l-4.5-4.8l0,0l0,0C13.3,13.1,19.4,8.6,26.4,7v-2c-0.4,0-0.9,0-1.3,0C16,4.9,7.3,7.8,0,13.1l0,0.1l4.6,0l-3.7,7.9l6.2,4.7
	l7.1,5.5l13.3-10.2L25.7,9.4C23.7,10,21.7,10.9,19.8,12L19.8,12z"/>
</svg>
