<?xml version="1.0" encoding="utf-8"?>
<!-- Generator: Adobe Illustrator 21.0.0, SVG Export Plug-In . SVG Version: 6.00 Build 0)  -->
<svg width="16" height="16" version="1.1" id="Layer_1" xmlns="http://www.w3.org/2000/svg" xmlns:xlink="http://www.w3.org/1999/xlink" x="0px" y="0px"
	 viewBox="0 0 16 16" style="enable-background:new 0 0 16 16;" xml:space="preserve">
<style type="text/css">
	.st0{fill:#333333;}
</style>
<path id="重置" class="st0" d="M15.7,6H12l2-1l0.2-0.2c-1.8-3.4-6-4.7-9.4-3c-3.4,1.8-4.7,6-3,9.4c1.8,3.4,6,4.7,9.4,3
	c1-0.5,1.9-1.3,2.5-2.2h1.2c-2.2,3.9-7.1,5.2-10.9,3C0.1,12.8-1.2,7.9,1,4.1c2.2-3.9,7.1-5.2,10.9-3c1.3,0.7,2.3,1.8,3,3L15,4l1-2v4
	H15.7z"/>
</svg>
