<?xml version="1.0" encoding="utf-8"?>
<!-- Generator: Adobe Illustrator 21.0.0, SVG Export Plug-In . SVG Version: 6.00 Build 0)  -->
<svg version="1.1" id="Layer_1" xmlns="http://www.w3.org/2000/svg" xmlns:xlink="http://www.w3.org/1999/xlink" x="0px" y="0px"
	 viewBox="0 0 159.4 24.9" style="enable-background:new 0 0 159.4 24.9;" xml:space="preserve">
<style type="text/css">
	.st0{fill:#0091DB;}
</style>
<path id="YUNDUN" class="st0" d="M17.6,0L6.7,13.5l-2,11.4H12l2-11.4L25.7,0H17.6z M43.9,0l-2.8,15.3c-0.2,1.2-0.7,2.2-1.6,3
	c-0.7,0.5-1.5,0.9-2.3,1l-1,5.5c1.7,0,3.4-0.3,5-0.8c1.2-0.4,2.3-1.1,3.3-1.9c1.1-0.9,2-2,2.6-3.2c0.7-1.2,1.1-2.5,1.4-3.9l2.7-15
	L43.9,0L43.9,0z M35.5,19.3c-0.8-0.1-1.5-0.4-2-1c-0.6-0.9-0.8-2-0.5-3L35.8,0h-7.3l-2.7,15c-0.2,1.3-0.2,2.6,0,3.9
	c0.1,1,0.5,1.9,1.1,2.7c0.6,0.8,1.3,1.5,2.2,2c1,0.5,2.1,0.8,3.3,0.9c0.8,0.1,1.6,0.2,2.3,0.2L35.5,19.3z M116.7,19.3
	c-0.8-0.1-1.5-0.4-2-1c-0.6-0.9-0.8-2-0.5-3L116.9,0h-7.3l-2.7,15c-0.2,1.3-0.2,2.6,0,3.9c0.1,1,0.5,1.9,1.1,2.7
	c0.6,0.8,1.3,1.5,2.2,2c1,0.5,2.1,0.8,3.3,0.9c0.8,0.1,1.6,0.2,2.3,0.2L116.7,19.3z M125,0l-2.7,15.3c-0.2,1.2-0.7,2.2-1.6,3
	c-0.7,0.5-1.5,0.9-2.3,1l-1,5.5c1.7,0,3.4-0.3,5-0.8c1.2-0.4,2.3-1.1,3.3-1.9c1.1-0.9,2-2,2.6-3.2c0.7-1.2,1.1-2.5,1.4-3.9l2.7-15
	L125,0L125,0z M60.4,11.2l2-11l0-0.1h-6.9l-4.4,24.4H58L60.4,11.2z M71.3,0.2l-2.4,13.5L63.6,2.8l-2,11l5.3,10.8h6.9l4.4-24.4
	L71.3,0.2L71.3,0.2z M141.5,11.2l2-11l0-0.1h-6.9l-4.4,24.4h6.9L141.5,11.2z M152.4,0.2L150,13.6l-5.3-10.8l-2,11l5.3,10.8h6.9
	l4.4-24.4L152.4,0.2L152.4,0.2z M103,7.2c-0.1-1.3-0.5-2.6-1.2-3.7c-0.7-1.1-1.7-1.9-2.8-2.5c-1.6-0.6-3.3-0.9-5.1-0.9H82.9L82,5.5
	h13.7l-0.2,9.5l-6.1,5l-4.3-5l2.6-7.8h-6.1l-3.1,17.5h10.9c1.5,0,3-0.2,4.5-0.6c1.3-0.4,2.6-1,3.6-1.9c1.2-1,2.2-2.1,3-3.5
	C102.3,15.1,103.1,11.2,103,7.2z M10.8,6.1L8.1,0H0L6,12.1L10.8,6.1z"/>
</svg>
