<?xml version="1.0" standalone="no"?><!DOCTYPE svg PUBLIC "-//W3C//DTD SVG 1.1//EN" "http://www.w3.org/Graphics/SVG/1.1/DTD/svg11.dtd"><svg t="1510034315866" class="icon" style="" viewBox="0 0 1024 1024" version="1.1" xmlns="http://www.w3.org/2000/svg" p-id="5196" xmlns:xlink="http://www.w3.org/1999/xlink" width="200" height="200"><defs><style type="text/css"></style></defs><path d="M894.886957 632.208696c-13.356522-40.069565-35.617391-75.686957-62.330435-106.852174v-8.904348c0-26.713043-8.904348-53.426087-17.808696-75.686957 0-164.730435-133.565217-302.747826-302.747826-302.747826s-302.747826 133.565217-302.747826 302.747826c-13.356522 22.26087-17.808696 48.973913-17.808696 71.234783v8.904348c-26.713043 31.165217-48.973913 66.782609-62.330435 106.852174-26.713043 89.043478-22.26087 191.443478 35.617392 209.252174 22.26087 4.452174 44.521739 0 62.330435-13.356522v4.452174c-31.165217 13.356522-48.973913 44.521739-53.426087 80.13913 0 66.782609 75.686957 111.304348 182.53913 111.304348 48.973913 0 97.947826-13.356522 142.469565-40.069565h31.165218c40.069565 26.713043 89.043478 40.069565 142.469565 40.069565 106.852174 0 182.53913-48.973913 182.53913-111.304348 0-35.617391-22.26087-62.330435-53.426087-80.13913v-4.452174c17.808696 13.356522 40.069565 17.808696 62.330435 13.356522 57.878261-17.808696 57.878261-120.208696 31.165218-204.8zM823.652174 814.747826c-17.808696 4.452174-40.069565 0-53.426087-8.904348 26.713043 13.356522 44.521739 40.069565 44.521739 71.234783 0 57.878261-66.782609 102.4-160.278261 102.4-44.521739 0-89.043478-8.904348-124.660869-35.617391h-26.713044c-40.069565 26.713043-84.591304 35.617391-129.113043 35.617391-93.495652 0-160.278261-44.521739-160.278261-102.4 0-31.165217 17.808696-57.878261 44.521739-71.234783-13.356522 13.356522-35.617391 17.808696-53.426087 8.904348-53.426087-17.808696-53.426087-111.304348-31.165217-191.443478 13.356522-35.617391 31.165217-71.234783 57.87826-97.947826v-8.904348c0-22.26087 4.452174-44.521739 17.808696-66.782609-8.904348-146.921739 106.852174-267.130435 258.226087-271.582608 146.921739-4.452174 271.582609 111.304348 276.034783 262.67826v13.356522c13.356522 22.26087 17.808696 44.521739 17.808695 66.782609v8.904348c26.713043 26.713043 44.521739 62.330435 53.426087 97.947826 22.26087 75.686957 22.26087 169.182609-31.165217 186.991304z" fill="#429FE9" p-id="5197"></path><path d="M1001.73913 422.956522c-4.452174 66.782609-66.782609 115.756522-133.565217 111.304348V396.243478C863.721739 200.347826 707.895652 89.043478 512 89.043478S160.278261 200.347826 155.826087 396.243478V534.26087c-66.782609 4.452174-129.113043-44.521739-133.565217-111.304348 4.452174-53.426087 44.521739-97.947826 97.947826-106.852174C160.278261 133.565217 320.556522 44.521739 512 44.521739s351.721739 89.043478 391.791304 271.582609c53.426087 8.904348 93.495652 53.426087 97.947826 106.852174z" fill="#429FE9" p-id="5198"></path></svg>