<?xml version="1.0" encoding="utf-8"?>
<!-- Generator: Adobe Illustrator 19.0.0, SVG Export Plug-In . SVG Version: 6.00 Build 0)  -->
<svg version="1.1" id="图层_1" xmlns="http://www.w3.org/2000/svg" xmlns:xlink="http://www.w3.org/1999/xlink" x="0px" y="0px"
	 viewBox="-275 288.9 44 264" style="enable-background:new -275 288.9 44 264;" xml:space="preserve">
<style type="text/css">
	.st0{fill:#FFFFFF;}
	.st1{fill:#2D90E6;}
	.st2{fill:#CDCDCD;}
</style>
<g>
	<path class="st0" d="M-275,552.9v-44h44v44H-275z M-275,464.9h44v44h-44V464.9z M-275,376.9h44v44h-44V376.9z M-275,288.9h44v44
		h-44V288.9z"/>
	<path class="st1" d="M-275,464.9v-44h44v44H-275z M-275,332.9h44v44h-44V332.9z"/>
	<path class="st2" d="M-265,477.9v-2h24v2H-265z M-254.4,481.3l1.4-1.4l0,0l0,0l1.4,1.4l0,0l9,9l-1.4,1.4l-8-8v15.1h-2v-15.1
		l-8.1,8.1l-1.4-1.4L-254.4,481.3L-254.4,481.3z"/>
	<path class="st0" d="M-241,442.9c-0.6,0-1-0.4-1-1c0-5-4-9-9-9c-0.6,0-1-0.4-1-1s0.4-1,1-1c6.1,0,11,4.9,11,11
		C-240,442.4-240.4,442.9-241,442.9z M-241.6,362.8c0,0-0.6,0.9-1.9-1.9c0,0-1.1,2.8-2.4,3.7c0,0,4.7,1.7,1.5,3.6
		c-3.2,1.9-8.9-0.4-8.1-1h-0.9c0,0,0,2-6.7,1.6c-0.4,0-5.7-2.4,0.4-4c0,0-2.6-1.9-2.5-3.9h-0.3c0,0-0.6,1.9-1.6,2.1
		c0,0-2.6-3.1,1.3-8.5c0,0,0.4-2.7,0.9-2.5c0.3,0.1-1.3-10.9,8.8-10.9c9.9,0,9,10.9,9,10.9s0.1-0.5,0.3-0.3c0.2,0.2,0.7,3,0.7,3
		S-239.6,359.2-241.6,362.8z M-246,441.9c0-2.8-2.2-5-5-5c-0.6,0-1-0.4-1-1s0.4-1,1-1c3.9,0,7,3.1,7,7c0,0.6-0.4,1-1,1
		S-246,442.4-246,441.9z M-261.6,434.1c0.5-0.3,2.9-0.3,5.2,3.2c0.3,0.5,0.6,1.6,0,2.9c-0.6,1.3-2.4,2.1-1.8,3.5
		c0.2,0.5,6.2,5.7,6.9,5.9c1,0.3,2.1-1.2,3-1.7c1-0.4,2.7-1,5.4,2.7c0.5,0.8,0.9,1.9,0.3,2.9c-0.6,1-3.2,2.9-7.2,2.1
		c-3.9-0.8-13.1-6.2-15.2-15C-265.3,438.6-264.9,436-261.6,434.1z"/>
	<path class="st1" d="M-241,398.9c-0.6,0-1-0.4-1-1c0-5-4-9-9-9c-0.6,0-1-0.4-1-1s0.4-1,1-1c6.1,0,11,4.9,11,11
		C-240,398.4-240.4,398.9-241,398.9z M-241.6,318.8c0,0-0.6,0.9-1.9-1.9c0,0-1.1,2.8-2.4,3.7c0,0,4.7,1.7,1.5,3.6
		c-3.2,1.9-8.9-0.4-8.1-1h-0.9c0,0,0,2-6.7,1.6c-0.4,0-5.7-2.4,0.4-4c0,0-2.6-1.9-2.5-3.9h-0.3c0,0-0.6,1.9-1.6,2.1
		c0,0-2.6-3.1,1.3-8.5c0,0,0.4-2.7,0.9-2.5c0.3,0.1-1.3-10.9,8.8-10.9c9.9,0,9,10.9,9,10.9s0.1-0.5,0.3-0.3c0.2,0.2,0.7,3,0.7,3
		S-239.6,315.2-241.6,318.8z M-246,397.9c0-2.8-2.2-5-5-5c-0.6,0-1-0.4-1-1s0.4-1,1-1c3.9,0,7,3.1,7,7c0,0.6-0.4,1-1,1
		S-246,398.4-246,397.9z M-261.6,390.1c0.5-0.3,2.9-0.3,5.2,3.2c0.3,0.5,0.6,1.6,0,2.9c-0.6,1.3-2.4,2.1-1.8,3.5
		c0.2,0.5,6.2,5.7,6.9,5.9c1,0.3,2.1-1.2,3-1.7c1-0.4,2.7-1,5.4,2.7c0.5,0.8,0.9,1.9,0.3,2.9c-0.6,1-3.2,2.9-7.2,2.1
		s-13.1-6.2-15.2-15C-265.3,394.6-264.9,392-261.6,390.1z M-241,521.9h-24v-2h24V521.9z M-254.4,525.3l1.4-1.4l0,0l0,0l1.4,1.4l0,0
		l9,9l-1.4,1.4l-8-8v15.1h-2v-15.1l-8.1,8.1l-1.4-1.4L-254.4,525.3L-254.4,525.3z"/>
</g>
</svg>
